<svg width="20" height="19" viewBox="0 0 20 19" fill="none" xmlns="http://www.w3.org/2000/svg">
<path d="M10 18.5C14.9706 18.5 19 14.4706 19 9.5C19 4.52944 14.9706 0.5 10 0.5C5.02944 0.5 1 4.52944 1 9.5C1 14.4706 5.02944 18.5 10 18.5Z" fill="#FFCE56" stroke="#4C241D" stroke-linecap="round" stroke-linejoin="round"/>
<path d="M10.0002 16.1316C13.6628 16.1316 16.6318 13.1625 16.6318 9.49999C16.6318 5.83747 13.6628 2.86841 10.0002 2.86841C6.33771 2.86841 3.36865 5.83747 3.36865 9.49999C3.36865 13.1625 6.33771 16.1316 10.0002 16.1316Z" stroke="#4C241D" stroke-linecap="round" stroke-linejoin="round" stroke-dasharray="4 4"/>
<path d="M12.2266 11.0664L12.1992 11.6445C12.1992 11.7669 12.2253 11.8568 12.2773 11.9141C12.332 11.9688 12.4232 11.9961 12.5508 11.9961C12.5247 12.1576 12.4818 12.2904 12.4219 12.3945C12.0521 12.5039 11.6654 12.5586 11.2617 12.5586C10.8581 12.5586 10.5977 12.5156 10.4805 12.4297C10.3659 12.3411 10.3086 12.2253 10.3086 12.082C10.3086 11.9362 10.3255 11.7474 10.3594 11.5156C10.3958 11.2839 10.4141 11.1003 10.4141 10.9648C10.4141 10.7253 10.2786 10.5807 10.0078 10.5312C10.0312 10.4036 10.0755 10.3021 10.1406 10.2266C10.3906 10.151 10.5755 10.0378 10.6953 9.88672C10.8151 9.73568 10.875 9.59245 10.875 9.45703C10.875 9.31901 10.849 9.21354 10.7969 9.14062C10.7448 9.0651 10.6823 9.02734 10.6094 9.02734C10.5365 9.02734 10.4648 9.03906 10.3945 9.0625C10.418 8.90625 10.4622 8.78906 10.5273 8.71094C10.8346 8.5625 11.1328 8.48828 11.4219 8.48828C11.7135 8.48828 11.944 8.55339 12.1133 8.68359C12.2826 8.8138 12.3672 8.98047 12.3672 9.18359C12.3672 9.38411 12.3216 9.55339 12.2305 9.69141C12.1419 9.82682 12.0234 9.9375 11.875 10.0234C11.5833 10.1979 11.2487 10.3034 10.8711 10.3398C11.3138 10.3398 11.6497 10.4036 11.8789 10.5312C12.1107 10.6589 12.2266 10.8372 12.2266 11.0664ZM9.49219 12.2344C9.49219 12.2708 9.45052 12.3242 9.36719 12.3945C9.28385 12.4648 9.21094 12.5 9.14844 12.5H7.53906C7.65365 12.0104 7.78516 11.1927 7.93359 10.0469C8.08464 8.90104 8.1888 8.0026 8.24609 7.35156C8.24609 7.31771 8.28776 7.26693 8.37109 7.19922C8.45443 7.12891 8.52604 7.09375 8.58594 7.09375H10.2305C10.0924 7.66667 9.94922 8.49349 9.80078 9.57422C9.65234 10.6523 9.54948 11.5391 9.49219 12.2344Z" fill="black"/>
</svg>
