<svg width="271" height="202" viewBox="0 0 271 202" fill="none" xmlns="http://www.w3.org/2000/svg">
<path d="M270.876 177.288H0.124023V177.423H270.876V177.288Z" fill="#EBEBEB"/>
<path d="M243.746 186.001H225.812V186.136H243.746V186.001Z" fill="#EBEBEB"/>
<path d="M179.481 187.474H174.775V187.609H179.481V187.474Z" fill="#EBEBEB"/>
<path d="M225.27 180.976H214.879V181.111H225.27V180.976Z" fill="#EBEBEB"/>
<path d="M51.9188 181.885H28.5312V182.021H51.9188V181.885Z" fill="#EBEBEB"/>
<path d="M60.1714 181.885H56.7437V182.021H60.1714V181.885Z" fill="#EBEBEB"/>
<path d="M122.043 184.171H71.3154V184.306H122.043V184.171Z" fill="#EBEBEB"/>
<path d="M128.46 153.137H23.9015C23.0824 153.136 22.2973 152.809 21.7186 152.23C21.14 151.65 20.8149 150.864 20.8149 150.045V3.06491C20.8221 2.2505 21.1502 1.47179 21.7282 0.89793C22.3061 0.324067 23.0871 0.00139512 23.9015 0H128.46C129.28 0 130.067 0.325762 130.647 0.905621C131.227 1.48548 131.552 2.27194 131.552 3.09198V150.045C131.552 150.865 131.227 151.652 130.647 152.231C130.067 152.811 129.28 153.137 128.46 153.137ZM23.9015 0.108301C23.1183 0.109735 22.3677 0.421866 21.8144 0.976182C21.2611 1.5305 20.9503 2.2817 20.9503 3.06491V150.045C20.9503 150.828 21.2611 151.579 21.8144 152.134C22.3677 152.688 23.1183 153 23.9015 153.002H128.46C129.244 153 129.995 152.688 130.549 152.134C131.104 151.58 131.416 150.829 131.417 150.045V3.06491C131.416 2.28121 131.104 1.53001 130.549 0.975851C129.995 0.42169 129.244 0.109732 128.46 0.108301H23.9015Z" fill="#EBEBEB"/>
<path d="M245.593 153.137H141.029C140.209 153.136 139.423 152.809 138.844 152.23C138.264 151.65 137.938 150.865 137.937 150.045V3.06491C137.945 2.25001 138.274 1.47131 138.853 0.897591C139.432 0.323878 140.214 0.00137991 141.029 0H245.593C246.406 0.00281825 247.186 0.32612 247.763 0.899831C248.339 1.47354 248.667 2.25144 248.674 3.06491V150.045C248.674 150.863 248.35 151.648 247.772 152.228C247.195 152.807 246.411 153.134 245.593 153.137ZM141.029 0.108301C140.245 0.109732 139.494 0.42169 138.939 0.975851C138.385 1.53001 138.073 2.28121 138.072 3.06491V150.045C138.073 150.829 138.385 151.58 138.939 152.134C139.494 152.688 140.245 153 141.029 153.002H245.593C246.376 153 247.128 152.688 247.682 152.134C248.236 151.58 248.548 150.829 248.549 150.045V3.06491C248.548 2.28121 248.236 1.53001 247.682 0.975851C247.128 0.42169 246.376 0.109732 245.593 0.108301H141.029Z" fill="#EBEBEB"/>
<path d="M219.162 120.414C219.162 120.414 215.648 100.313 223.223 76.5523C230.799 52.7911 232.429 41.008 226.472 31.6075" stroke="#EBEBEB" stroke-miterlimit="10"/>
<path d="M215.101 119.369C202.993 106.232 218.079 72.5614 210.953 61.8558C203.826 51.1503 200.664 32.8475 200.664 32.8475" stroke="#EBEBEB" stroke-miterlimit="10"/>
<path d="M226.678 34.824C233.069 34.824 238.25 28.9327 238.25 21.6655C238.25 14.3982 233.069 8.50696 226.678 8.50696C220.287 8.50696 215.106 14.3982 215.106 21.6655C215.106 28.9327 220.287 34.824 226.678 34.824Z" fill="#EBEBEB"/>
<path d="M226.678 65.5922C233.069 65.5922 238.25 59.7009 238.25 52.4337C238.25 45.1664 233.069 39.2751 226.678 39.2751C220.287 39.2751 215.106 45.1664 215.106 52.4337C215.106 59.7009 220.287 65.5922 226.678 65.5922Z" fill="#F5F5F5"/>
<path d="M201.893 47.9826C208.284 47.9826 213.465 42.0913 213.465 34.824C213.465 27.5568 208.284 21.6655 201.893 21.6655C195.502 21.6655 190.321 27.5568 190.321 34.824C190.321 42.0913 195.502 47.9826 201.893 47.9826Z" fill="#F0F0F0"/>
<path d="M224.22 59.5653C218.656 66.3191 215.453 74.7075 215.101 83.451C214.559 98.012 217.088 118.215 215.101 125.753" stroke="#F5F5F5" stroke-miterlimit="10"/>
<path d="M121.236 56.1268H25.7749V177.007H121.236V56.1268Z" fill="#F0F0F0"/>
<path d="M117.863 60.5292H29.1484V86.3805H117.863V60.5292Z" fill="#E0E0E0"/>
<path d="M34.1898 64.715H29.1484V86.3805H34.1898V64.715Z" fill="#EBEBEB"/>
<path d="M58.5575 64.715H53.5161V86.3805H58.5575V64.715Z" fill="#EBEBEB"/>
<path d="M86.2216 64.1707L81.2534 65.0271L84.9336 86.3778L89.9018 85.5214L86.2216 64.1707Z" fill="#EBEBEB"/>
<path d="M40.4335 67.5687H35.3921V86.3805H40.4335V67.5687Z" fill="#EBEBEB"/>
<path d="M52.0165 67.5687H46.9751V86.3805H52.0165V67.5687Z" fill="#EBEBEB"/>
<path d="M81.2518 67.5687H76.2104V86.3805H81.2518V67.5687Z" fill="#EBEBEB"/>
<path d="M65.1811 66.9234L60.2598 68.0171L64.341 86.3808L69.2623 85.2871L65.1811 66.9234Z" fill="#EBEBEB"/>
<path d="M44.787 63.6428H42.269V86.3805H44.787V63.6428Z" fill="#EBEBEB"/>
<path d="M74.7592 63.6428H72.2412V86.3805H74.7592V63.6428Z" fill="#EBEBEB"/>
<path d="M29.143 116.32L117.857 116.32V90.469L29.143 90.469V116.32Z" fill="#E0E0E0"/>
<path d="M112.816 116.32H117.857V94.6548H112.816V116.32Z" fill="#EBEBEB"/>
<path d="M88.4484 116.32H93.4897V94.6548H88.4484V116.32Z" fill="#EBEBEB"/>
<path d="M57.109 115.464L62.0771 116.32L65.7574 94.9696L60.7893 94.1133L57.109 115.464Z" fill="#EBEBEB"/>
<path d="M106.578 116.32H111.62V97.5085H106.578V116.32Z" fill="#EBEBEB"/>
<path d="M94.9899 116.32H100.031V97.5085H94.9899V116.32Z" fill="#EBEBEB"/>
<path d="M65.754 116.32H70.7954V97.5085H65.754V116.32Z" fill="#EBEBEB"/>
<path d="M77.7613 115.227L82.6826 116.321L86.7639 97.9569L81.8425 96.8632L77.7613 115.227Z" fill="#EBEBEB"/>
<path d="M102.219 116.32H104.737V93.5826H102.219V116.32Z" fill="#EBEBEB"/>
<path d="M72.2467 116.32H74.7646V93.5826H72.2467V116.32Z" fill="#EBEBEB"/>
<path d="M34.1898 94.6602H29.1484V116.326H34.1898V94.6602Z" fill="#EBEBEB"/>
<path d="M40.4335 97.5139H35.3921V116.326H40.4335V97.5139Z" fill="#EBEBEB"/>
<path d="M52.0165 97.5139H46.9751V116.326H52.0165V97.5139Z" fill="#EBEBEB"/>
<path d="M44.787 93.5825H42.269V116.32H44.787V93.5825Z" fill="#EBEBEB"/>
<path d="M117.863 120.414H29.1484V146.265H117.863V120.414Z" fill="#E0E0E0"/>
<path d="M85.1073 124.6H80.0659V146.265H85.1073V124.6Z" fill="#EBEBEB"/>
<path d="M112.773 124.052L107.805 124.909L111.485 146.259L116.453 145.403L112.773 124.052Z" fill="#EBEBEB"/>
<path d="M66.9833 127.453H61.9419V146.265H66.9833V127.453Z" fill="#EBEBEB"/>
<path d="M78.5663 127.453H73.5249V146.265H78.5663V127.453Z" fill="#EBEBEB"/>
<path d="M107.802 127.453H102.761V146.265H107.802V127.453Z" fill="#EBEBEB"/>
<path d="M91.7338 126.808L86.8125 127.901L90.8937 146.265L95.8151 145.171L91.7338 126.808Z" fill="#EBEBEB"/>
<path d="M71.3373 123.522H68.8193V146.26H71.3373V123.522Z" fill="#EBEBEB"/>
<path d="M101.309 123.522H98.7915V146.26H101.309V123.522Z" fill="#EBEBEB"/>
<path d="M54.7977 124.056L49.8296 124.913L53.5098 146.264L58.4779 145.407L54.7977 124.056Z" fill="#EBEBEB"/>
<path d="M49.8231 127.453H44.7817V146.265H49.8231V127.453Z" fill="#EBEBEB"/>
<path d="M33.7548 126.807L28.8335 127.901L32.9147 146.264L37.8361 145.171L33.7548 126.807Z" fill="#EBEBEB"/>
<path d="M43.3359 123.522H40.8179V146.26H43.3359V123.522Z" fill="#EBEBEB"/>
<path d="M234.508 111.458H175.777C174.508 111.458 173.292 111.961 172.396 112.858C171.499 113.755 170.995 114.971 170.995 116.239L164.497 157.642H232.791L239.289 116.239C239.289 114.971 238.786 113.755 237.889 112.858C236.992 111.961 235.776 111.458 234.508 111.458Z" fill="#EBEBEB"/>
<path d="M164.665 127.47L164.741 127.253H141.998V177.613H170.156V133.291C170.177 131.797 169.616 130.354 168.591 129.267C167.566 128.181 166.158 127.536 164.665 127.47Z" fill="#E0E0E0"/>
<path d="M141.76 127.453C140.212 127.453 138.727 128.068 137.632 129.163C136.537 130.258 135.922 131.743 135.922 133.291V177.613H147.592V133.291C147.592 131.744 146.977 130.26 145.884 129.165C144.79 128.071 143.307 127.455 141.76 127.453Z" fill="#F0F0F0"/>
<path d="M230.187 127.47L230.263 127.253H207.52V177.613H235.678V133.291C235.699 131.797 235.137 130.354 234.112 129.267C233.087 128.181 231.679 127.536 230.187 127.47Z" fill="#E0E0E0"/>
<path d="M201.444 142.145H151.404V177.613H201.444V142.145Z" fill="#E0E0E0"/>
<path d="M154.664 138.511H210.98V150.809H154.664C153.855 150.811 153.053 150.653 152.305 150.345C151.557 150.037 150.876 149.584 150.304 149.013C149.731 148.441 149.276 147.762 148.966 147.015C148.656 146.267 148.496 145.466 148.496 144.657C148.497 143.848 148.657 143.048 148.967 142.301C149.278 141.554 149.733 140.876 150.305 140.305C150.878 139.734 151.558 139.282 152.306 138.974C153.054 138.666 153.855 138.509 154.664 138.511Z" fill="#F5F5F5"/>
<path d="M207.281 127.453C205.733 127.453 204.248 128.068 203.154 129.163C202.059 130.258 201.444 131.743 201.444 133.291V177.613H213.113V133.291C213.113 131.744 212.499 130.26 211.405 129.165C210.312 128.071 208.828 127.455 207.281 127.453Z" fill="#F0F0F0"/>
<path d="M223.223 158.254H232.792L239.29 116.239C239.29 115.611 239.166 114.988 238.925 114.408C238.684 113.827 238.332 113.3 237.887 112.856C237.443 112.412 236.915 112.06 236.334 111.82C235.753 111.58 235.131 111.457 234.503 111.458C233.235 111.458 232.018 111.961 231.122 112.858C230.225 113.755 229.721 114.971 229.721 116.239L223.223 158.254Z" fill="#E0E0E0"/>
<path d="M135.5 201.742C193.485 201.742 240.492 198.998 240.492 195.612C240.492 192.227 193.485 189.483 135.5 189.483C77.5143 189.483 30.5078 192.227 30.5078 195.612C30.5078 198.998 77.5143 201.742 135.5 201.742Z" fill="#F5F5F5"/>
<path d="M46.6932 181.149C46.6932 181.149 43.5579 175.014 47.1427 168.971C50.7274 162.927 51.7617 161.498 49.4766 160.258C47.1914 159.018 46.1517 165.099 46.1517 165.099C46.1517 165.099 44.2294 160.918 45.816 156.543C47.4026 152.168 48.4044 145.042 46.233 144.278C44.0615 143.514 45.816 153.169 43.937 156.456C42.9832 154.165 42.3632 151.749 42.0959 149.281C41.836 145.767 42.2421 140.157 40.5255 138.717C38.809 137.276 37.7151 138.273 39.3992 146.027C40.4118 150.655 40.9722 155.37 41.0724 160.106C41.0724 160.106 37.3252 149.915 34.8289 149.617C32.3326 149.319 32.338 152.617 34.4715 155.471C36.605 158.325 40.7367 163.447 41.4028 166.079C41.4028 166.079 37.3252 158.427 33.6484 160.772C29.9716 163.117 36.8487 167.741 39.9082 169.436C42.9677 171.131 45.0958 181.577 45.0958 181.577L46.6932 181.149Z" fill="#2D86BF"/>
<path opacity="0.2" d="M46.6932 181.149C46.6932 181.149 43.5579 175.014 47.1427 168.971C50.7274 162.927 51.7617 161.498 49.4766 160.258C47.1914 159.018 46.1517 165.099 46.1517 165.099C46.1517 165.099 44.2294 160.918 45.816 156.543C47.4026 152.168 48.4044 145.042 46.233 144.278C44.0615 143.514 45.816 153.169 43.937 156.456C42.9832 154.165 42.3632 151.749 42.0959 149.281C41.836 145.767 42.2421 140.157 40.5255 138.717C38.809 137.276 37.7151 138.273 39.3992 146.027C40.4118 150.655 40.9722 155.37 41.0724 160.106C41.0724 160.106 37.3252 149.915 34.8289 149.617C32.3326 149.319 32.338 152.617 34.4715 155.471C36.605 158.325 40.7367 163.447 41.4028 166.079C41.4028 166.079 37.3252 158.427 33.6484 160.772C29.9716 163.117 36.8487 167.741 39.9082 169.436C42.9677 171.131 45.0958 181.577 45.0958 181.577L46.6932 181.149Z" fill="black"/>
<path d="M44.1967 183.667C44.1967 183.667 47.2346 177.488 43.5902 171.494C39.9459 165.5 38.8683 164.086 41.1372 162.83C43.4061 161.574 44.527 167.606 44.527 167.606C44.527 167.606 46.3952 163.404 44.7436 159.05C43.0921 154.697 42.0361 147.587 44.1642 146.791C46.2923 145.995 44.7057 155.671 46.6281 158.937C47.551 156.634 48.1382 154.21 48.3717 151.74C48.5829 148.22 48.101 142.616 49.7959 141.154C51.4908 139.692 52.6008 140.672 51.0251 148.448C50.0752 153.081 49.5783 157.797 49.5414 162.527C49.5414 162.527 53.1207 152.309 55.6116 151.978C58.1025 151.648 58.1458 154.94 56.0502 157.826C53.9546 160.713 49.8987 165.884 49.2598 168.527C49.2598 168.527 53.2398 160.821 56.9383 163.112C60.6368 165.402 53.8355 170.119 50.7976 171.835C47.7598 173.552 45.7725 184.046 45.7725 184.046L44.1967 183.667Z" fill="#2D86BF"/>
<path d="M58.2759 179.302H33.0635L35.1049 195.482H56.2344L58.2759 179.302Z" fill="#2D86BF"/>
<g opacity="0.6">
<path d="M58.2759 179.302H33.0635L35.1049 195.482H56.2344L58.2759 179.302Z" fill="white"/>
</g>
<path d="M116.547 59.2729L116.818 55.1899C116.818 55.1899 115.843 53.9932 115.914 53.2947C115.984 52.5961 117.668 48.7244 118.231 48.5944C118.795 48.4645 121.589 50.1702 121.551 51.0691C121.513 51.968 119.58 55.0979 119.282 55.3253L119.255 59.6898L116.547 59.2729Z" fill="#E4897B"/>
<path d="M79.7252 46.5314C77.2559 47.2245 75.978 51.7244 77.1531 60.1177C78.3281 68.511 75.0791 79.6551 75.0791 79.6551C75.0791 79.6551 88.5679 83.8517 97.0533 78.48C105.539 73.1083 93.4415 62.4624 93.4415 62.4624C93.4415 62.4624 98.3637 65.8035 100.032 70.3142C100.361 69.5314 100.455 68.6695 100.302 67.8341C99.2172 65.6277 97.643 63.6979 95.6995 62.1916C92.3585 59.5274 95.158 53.2568 92.8133 49.8724C90.4686 46.488 89.2448 43.8617 79.7252 46.5314Z" fill="#263238"/>
<path d="M93.3979 54.9246C93.3979 54.9246 93.1271 59.7981 94.8437 60.9732C96.5603 62.1482 100.123 63.0958 101.293 65.3485" stroke="#263238" stroke-width="0.488465" stroke-linecap="round" stroke-linejoin="round"/>
<path d="M95.8833 66.6807C100.844 67.0489 110.591 74.8844 113.298 75.4259C116.006 75.9674 116.368 56.8578 116.368 56.8578H120.338C120.338 56.8578 119.617 77.8302 116.726 80.1424C113.834 82.4546 95.396 75.4422 95.396 75.4422L95.8833 66.6807Z" fill="#2D86BF"/>
<path opacity="0.3" d="M120.338 56.8578C120.338 56.8578 119.617 77.8302 116.726 80.1424C114.841 81.6586 106.324 79.1785 100.638 77.2887C98.5313 76.5847 96.8147 75.9566 95.97 75.6642L95.396 75.4476L95.8888 66.6861C100.844 67.0489 110.591 74.8898 113.298 75.4313C116.006 75.9728 116.368 56.8578 116.368 56.8578H120.338Z" fill="black"/>
<path d="M116.006 56.3163H120.338L120.814 57.9408H116.006V56.3163Z" fill="#2D86BF"/>
<path opacity="0.2" d="M100.638 77.2887C98.5315 76.5847 96.815 75.962 95.9702 75.6641V71.787C95.9702 71.787 99.3763 74.1317 100.638 77.2887Z" fill="black"/>
<path d="M90.62 168.786C87.1652 173.118 84.057 177.071 81.3494 179.941C78.6419 182.849 77.2449 184.653 77.2449 184.653L74.5698 183.115C74.5698 183.115 77.0445 179.2 80.4018 173.801C83.2555 169.22 86.7482 163.566 89.9214 158.33C94.026 151.561 97.5945 145.491 98.5368 143.32C99.2082 141.776 97.3888 135.847 95.3798 130.259C93.3383 124.567 91.0965 119.223 91.0965 119.223L98.4014 106.849C98.4014 106.849 101.374 115.086 104.017 123.777C105.755 129.463 107.336 135.349 107.872 139.258C108.62 144.722 99.219 157.994 90.62 168.786Z" fill="#E4897B"/>
<path opacity="0.2" d="M90.6416 168.786C87.1868 173.118 83.8674 177.071 81.3982 179.941C81.0462 178.176 80.6888 176.086 80.4072 173.806C83.2609 169.225 86.7536 163.572 89.9268 158.335C89.8595 161.833 90.0987 165.33 90.6416 168.786Z" fill="black"/>
<path opacity="0.2" d="M104.017 123.782L95.3531 130.28C93.3116 124.589 91.0698 119.244 91.0698 119.244L98.3747 106.871C98.3747 106.871 101.385 115.091 104.017 123.782Z" fill="black"/>
<path d="M88.9305 190.977L85.8169 191.383C85.8169 191.383 81.3495 169.393 81.4848 151.247C79.826 145.242 78.5313 139.143 77.6077 132.982C76.5247 125.553 75.9832 117.279 77.4236 111.105L88.2536 115.979L88.4756 132.224L88.6598 145.762L88.9305 190.977Z" fill="#E4897B"/>
<path opacity="0.2" d="M88.4756 132.224L77.6077 132.982C76.5247 125.553 75.9832 117.279 77.4236 111.105L88.2536 115.979L88.4756 132.224Z" fill="black"/>
<path d="M74.7485 181.403C75.068 181.171 77.7647 185.194 77.7647 185.194C77.7647 185.194 77.1636 189.401 78.382 192.12C79.6004 194.838 77.234 194.605 75.2684 192.033L70.3948 185.665C69.0086 183.867 71.4399 183.819 74.7485 181.403Z" fill="#263238"/>
<path d="M78.6802 188.27C78.0629 188.124 77.6676 186.38 77.5972 186.033V185.979V185.941V185.909L77.6405 185.882C77.7 185.882 78.8372 185.503 79.4545 185.882C79.5487 185.935 79.6303 186.008 79.6938 186.096C79.7574 186.184 79.8013 186.285 79.8227 186.391C79.8715 186.629 79.8227 186.797 79.6874 186.889C79.552 186.981 79.0646 186.916 78.6585 186.732C78.9306 186.984 79.1274 187.306 79.2271 187.663C79.237 187.735 79.2326 187.808 79.214 187.877C79.1954 187.947 79.163 188.012 79.1188 188.069C79.0772 188.137 79.0201 188.193 78.9523 188.233C78.8844 188.274 78.8078 188.298 78.7289 188.302L78.6802 188.27ZM78.7343 188.021C78.7614 188.021 78.8372 188.021 78.9563 187.891C78.9798 187.861 78.9968 187.827 79.0061 187.791C79.0154 187.755 79.0169 187.717 79.0105 187.68C78.9563 187.279 78.3553 186.694 77.9275 186.337C78.1008 187.084 78.4473 187.95 78.7343 188.021ZM78.0304 186.055C78.6856 186.461 79.4058 186.781 79.5845 186.656C79.6386 186.618 79.6224 186.494 79.5845 186.423C79.5722 186.352 79.5439 186.284 79.5017 186.225C79.4595 186.166 79.4045 186.117 79.3408 186.082C79.1598 185.991 78.9584 185.948 78.756 185.958C78.5112 185.963 78.2679 185.996 78.0304 186.055Z" fill="#2D86BF"/>
<path d="M84.7126 189.418C84.7126 189.022 89.5861 189.32 89.5861 189.32C89.5861 189.32 92.5644 192.369 95.4614 193.051C98.3585 193.734 96.7394 195.483 93.5012 195.483H85.4815C83.1801 195.483 84.5989 193.506 84.7126 189.418Z" fill="#263238"/>
<path d="M90.1111 189.938L90.0678 189.91V189.878C90.0678 189.878 90.0678 189.851 90.0678 189.84C90.0653 189.824 90.0653 189.807 90.0678 189.791C90.0678 189.732 90.4956 188.611 91.1508 188.34C91.2493 188.294 91.3564 188.271 91.4649 188.271C91.5734 188.271 91.6805 188.294 91.779 188.34C92.001 188.443 92.1093 188.578 92.0985 188.746C92.0985 189.001 91.7411 189.255 91.3458 189.466C91.7109 189.407 92.0854 189.448 92.4288 189.586C92.4909 189.621 92.5454 189.669 92.5891 189.725C92.6328 189.782 92.6648 189.847 92.6833 189.916C92.7192 190.003 92.7276 190.099 92.7073 190.191C92.687 190.283 92.6389 190.366 92.5696 190.43C92.4439 190.516 92.2936 190.558 92.1418 190.549C91.4339 190.468 90.7463 190.26 90.1111 189.938ZM90.5552 189.856C91.27 190.16 92.1526 190.425 92.3855 190.241C92.3855 190.241 92.4667 190.17 92.4179 189.981C92.4069 189.945 92.3887 189.911 92.3645 189.883C92.3404 189.854 92.3106 189.83 92.2771 189.813C92.0972 189.731 91.9004 189.694 91.7032 189.705C91.3163 189.715 90.9316 189.766 90.5552 189.856ZM91.2266 188.562C90.8415 188.809 90.5484 189.177 90.3927 189.607C91.1129 189.331 91.806 188.957 91.8169 188.735C91.8169 188.67 91.7086 188.605 91.6436 188.578C91.5782 188.548 91.5071 188.533 91.4351 188.533C91.3631 188.533 91.292 188.548 91.2266 188.578V188.562Z" fill="#2D86BF"/>
<path d="M93.2626 127.215L104.975 121.08C101.293 109.882 97.9683 103.535 97.9683 103.535C86.456 105.506 87.5065 114.609 87.5065 114.609C87.5065 114.609 90.4631 120.679 93.2626 127.215Z" fill="#2D86BF"/>
<path opacity="0.6" d="M92.5315 125.488C92.7806 126.056 93.0351 126.636 93.2842 127.215L104.997 121.08C101.315 109.887 97.9898 103.535 97.9898 103.535C90.8853 104.759 88.5677 108.69 87.8312 111.517C87.5589 112.524 87.4564 113.569 87.528 114.609C87.528 114.609 89.9593 119.672 92.5315 125.488Z" fill="white"/>
<path opacity="0.2" d="M92.5315 125.488C89.9593 119.65 87.528 114.609 87.528 114.609C87.4564 113.569 87.5589 112.524 87.8312 111.517C88.199 111.279 88.606 111.109 89.0334 111.013C89.0334 111.013 92.1795 115.925 92.5315 125.488Z" fill="black"/>
<path d="M89.6565 129.744L89.2558 111.008L98.5372 108.301C98.5372 108.301 97.8061 99.7069 96.7231 95.4669C96.7231 95.4669 81.6477 91.7143 79.3463 96.8261C79.3463 96.8261 79.3463 96.9073 79.3138 96.9344L79.2813 96.9831C79.2813 96.9831 74.9493 104.602 76.2381 129.739L89.6565 129.744Z" fill="#2D86BF"/>
<path opacity="0.6" d="M89.6565 129.744L89.2558 111.008L98.5372 108.301C98.5372 108.301 97.8061 99.7069 96.7231 95.4669C96.7231 95.4669 81.6477 91.7143 79.3463 96.8261C79.3463 96.8261 79.3463 96.9073 79.3138 96.9344L79.2813 96.9831C79.2813 96.9831 74.9493 104.602 76.2381 129.739L89.6565 129.744Z" fill="white"/>
<path d="M79.1836 94.2377V96.7935L96.5117 95.456V92.4344L79.1836 94.2377Z" fill="#263238"/>
<path d="M85.0446 93.4025L84.1782 93.4458L84.3992 97.8645L85.2656 97.8211L85.0446 93.4025Z" fill="#2D86BF"/>
<path d="M92.6232 93.0507L88.8047 93.3928L89.0642 96.2891L92.8827 95.947L92.6232 93.0507Z" fill="white"/>
<path d="M95.7149 91.9983L94.8496 92.0425L95.0747 96.4554L95.94 96.4113L95.7149 91.9983Z" fill="#2D86BF"/>
<path opacity="0.6" d="M85.0446 93.4025L84.1782 93.4458L84.3992 97.8645L85.2656 97.8211L85.0446 93.4025Z" fill="white"/>
<path opacity="0.6" d="M95.7149 91.9983L94.8496 92.0425L95.0747 96.4554L95.94 96.4113L95.7149 91.9983Z" fill="white"/>
<path d="M96.723 92.7377L79.265 94.2485C78.848 87.7505 78.4365 83.5701 74.5918 72.0036C74.2597 70.9892 73.8987 69.9152 73.5088 68.7817C75.8789 68.0258 78.3002 67.4413 80.7541 67.0326C83.345 66.5724 85.9652 66.2956 88.5951 66.2041C91.9903 66.2041 95.8891 66.5615 95.8891 66.5615C95.8891 66.5615 96.4306 66.6969 96.7988 70.2979C97.1129 73.6768 97.427 80.4402 96.723 92.7377Z" fill="#2D86BF"/>
<path opacity="0.3" d="M96.723 92.7377L79.265 94.2485C79.0859 89.7929 78.4324 85.3691 77.3156 81.0521C76.8661 79.3084 76.3029 77.3482 75.5882 75.0955C75.2849 74.1316 74.9546 73.1136 74.5918 72.0252C74.229 70.9368 73.8987 69.935 73.5088 68.8033C75.8789 68.0474 78.3002 67.4629 80.7541 67.0542C83.345 66.594 85.9652 66.3172 88.5951 66.2257C91.9903 66.2257 95.8945 66.5831 95.8945 66.5831C95.8945 66.5831 96.436 66.7185 96.7988 70.3141C97.1129 73.6768 97.427 80.4402 96.723 92.7377Z" fill="black"/>
<path d="M75.1226 128.975L90.42 128.84L90.1493 131.141L75.7994 131.006L75.1226 128.975Z" fill="#2D86BF"/>
<path d="M92.3149 127.08L105.04 120.176L105.717 122.206L93.3979 128.298L92.3149 127.08Z" fill="#2D86BF"/>
<path d="M85.0752 66.4424C85.0752 66.4424 80.2666 66.2529 80.5374 68.7113C80.8081 71.1697 92.5317 78.3013 92.5317 78.3013C92.5317 78.3013 92.0118 65.3432 85.0752 66.4424Z" stroke="#2D86BF" stroke-miterlimit="10"/>
<path d="M87.149 70.0651C82.8169 69.5236 81.5498 67.6716 81.5498 67.6716C83.3097 66.0146 82.9902 63.567 82.5408 62.04C82.4011 61.556 82.2199 61.0849 81.9993 60.6321L87.1814 61.6014C87.062 62.3175 86.995 63.0415 86.9811 63.7674C86.9618 64.3129 87.0109 64.8586 87.1273 65.3919C87.4793 66.9406 88.3619 66.9623 88.3619 66.9623C89.2825 68.6572 87.149 70.0651 87.149 70.0651Z" fill="#E4897B"/>
<path opacity="0.2" d="M86.9922 63.7836C86.9729 64.3291 87.022 64.8748 87.1384 65.4081C85.0807 65.1373 83.5211 63.4912 82.541 62.0616C82.4014 61.5776 82.2202 61.1065 81.9995 60.6537L87.1817 61.623C87.0662 62.3376 87.0028 63.0597 86.9922 63.7836Z" fill="black"/>
<path d="M86.1364 47.257C90.6417 47.4194 92.0062 49.8887 92.1633 54.5456C92.3582 60.3614 90.9178 64.4389 85.3295 62.9876C77.7431 61.022 78.642 46.9754 86.1364 47.257Z" fill="#E4897B"/>
<path d="M89.2554 54.1827C89.5925 54.8692 90.0106 55.5127 90.5008 56.0997C90.3619 56.281 90.1757 56.4204 89.9626 56.5025C89.7495 56.5847 89.5179 56.6065 89.2933 56.5654L89.2554 54.1827Z" fill="#DE5753"/>
<path d="M86.5156 53.7117C86.5156 54.0853 86.3044 54.3831 86.0553 54.3777C85.8062 54.3723 85.6167 54.0691 85.6167 53.7008C85.6167 53.3326 85.8279 53.0348 86.077 53.0348C86.3261 53.0348 86.521 53.3434 86.5156 53.7117Z" fill="#263238"/>
<path d="M85.9741 53.0673L86.781 52.764C86.781 52.764 86.3694 53.4193 85.9741 53.0673Z" fill="#263238"/>
<path d="M91.0967 53.7008C91.0967 54.069 90.8909 54.3668 90.6419 54.3614C90.3928 54.356 90.1978 54.0581 90.2032 53.6845C90.2087 53.3109 90.4144 53.0185 90.6581 53.0239C90.9018 53.0293 91.1238 53.3271 91.0967 53.7008Z" fill="#263238"/>
<path d="M90.5552 53.0672L91.3674 52.7585C91.3674 52.7585 90.9775 53.4084 90.5552 53.0672Z" fill="#263238"/>
<path d="M86.5859 50.598C86.2308 50.5415 85.8674 50.5674 85.5238 50.6734C85.1802 50.7795 84.8655 50.963 84.604 51.2099" stroke="#263238" stroke-width="0.707962" stroke-linecap="round" stroke-linejoin="round"/>
<path d="M89.8677 50.533C90.1781 50.4663 90.4995 50.4706 90.8081 50.5456C91.1166 50.6206 91.4041 50.7644 91.6492 50.9662" stroke="#263238" stroke-width="0.707962" stroke-linecap="round" stroke-linejoin="round"/>
<path d="M88.5678 58.3144C88.3391 58.8166 88.1455 59.334 87.9884 59.8631L87.696 59.8252C86.391 59.6411 85.8441 59.1266 85.6329 58.6122C85.5374 58.3566 85.5039 58.0819 85.5354 57.8108C85.5468 57.6566 85.5815 57.5051 85.6383 57.3613C86.3936 57.832 87.2412 58.1349 88.1238 58.2494C88.3891 58.2981 88.5678 58.3144 88.5678 58.3144Z" fill="#263238"/>
<path d="M88.124 58.2494L87.9399 58.6988C86.7107 58.5256 85.8714 58.2386 85.5356 57.8108C85.547 57.6566 85.5817 57.5051 85.6385 57.3613C86.3938 57.832 87.2415 58.1349 88.124 58.2494Z" fill="white"/>
<path d="M87.6959 59.8251C86.3909 59.641 85.844 59.1266 85.6328 58.6122C86.1293 58.6885 86.6081 58.8536 87.0461 59.0995C87.3354 59.2649 87.5633 59.5195 87.6959 59.8251Z" fill="#DE5753"/>
<path d="M80.9327 54.6917C80.9327 54.6917 83.1745 51.0691 82.9633 48.1937C82.9633 48.1937 92.0281 44.8743 92.131 53.9553C92.131 53.9553 93.3006 45.9411 85.5625 45.4754C77.8245 45.0097 77.44 56.3433 81.3117 59.8685C81.3117 59.8469 79.541 56.9336 80.9327 54.6917Z" fill="#263238"/>
<path d="M81.631 55.6449C81.6058 55.1219 81.3746 54.6303 80.9881 54.2772C80.6015 53.9241 80.091 53.7384 79.5679 53.7604C78.1654 53.8579 77.4019 56.7008 80.8459 57.5185C81.3495 57.6376 81.6365 57.1611 81.631 55.6449Z" fill="#E4897B"/>
<path d="M83.6075 44.2787C86.0443 43.6018 92.5423 43.5097 94.0748 50.2352L93.1705 50.6846C91.6447 49.9172 89.9944 49.4276 88.2969 49.2388C87.9363 48.598 87.5137 47.994 87.0352 47.4356C87.0851 48.0067 87.0851 48.5811 87.0352 49.1522C87.0352 49.1522 82.7953 49.7695 80.9 51.4969C77.9217 54.2044 77.7376 55.921 77.7376 55.921C77.7376 55.921 75.6745 46.4772 83.6075 44.2787Z" fill="#263238"/>
<path d="M83.2451 44.7714C83.2451 44.7714 91.9525 41.7498 94.7087 50.0077" stroke="#263238" stroke-width="0.488465" stroke-linecap="round" stroke-linejoin="round"/>
<path d="M93.3818 80.6026C94.1743 80.6026 94.8167 79.9602 94.8167 79.1676C94.8167 78.3751 94.1743 77.7327 93.3818 77.7327C92.5892 77.7327 91.9468 78.3751 91.9468 79.1676C91.9468 79.9602 92.5892 80.6026 93.3818 80.6026Z" fill="white"/>
<path opacity="0.2" d="M77.3153 81.0521C76.8658 79.3085 76.3027 77.3483 75.5879 75.0956L76.3243 73.5577C76.3243 73.5577 78.2358 78.0143 77.3153 81.0521Z" fill="black"/>
<path d="M50.8901 59.5112L49.3901 55.7206C49.3901 55.7206 49.9316 54.2857 49.6717 53.6413C49.4118 52.9969 46.6176 49.8237 46.0382 49.8508C45.4588 49.8778 43.3307 52.3742 43.6285 53.2189C43.9263 54.0637 46.7313 56.4679 47.0833 56.5816L48.4371 60.735L50.8901 59.5112Z" fill="#E4897B"/>
<path d="M73.503 68.7709C71.1962 69.399 62.1315 78.1985 60.6369 78.1985C59.1424 78.1985 50.7545 58.0275 50.7545 58.0275L47.9116 59.8253C47.9116 59.8253 53.7328 82.4059 57.2525 84.3012C60.7723 86.1964 76.3784 77.6732 76.3784 77.6732C76.3784 77.6732 76.6113 73.2978 75.9344 71.2835C75.7512 70.7051 75.4362 70.1771 75.0143 69.7411C74.5924 69.3051 74.0751 68.973 73.503 68.7709Z" fill="#2D86BF"/>
<path opacity="0.3" d="M73.503 68.7709C71.1962 69.399 62.1315 78.1985 60.6369 78.1985C59.1424 78.1985 50.7545 58.0275 50.7545 58.0275L47.9116 59.8253C47.9116 59.8253 53.7328 82.4059 57.2525 84.3012C60.7723 86.1964 76.3784 77.6732 76.3784 77.6732C76.3784 77.6732 76.6113 73.2978 75.9344 71.2835C75.7512 70.7051 75.4362 70.1771 75.0143 69.7411C74.5924 69.3051 74.0751 68.973 73.503 68.7709Z" fill="black"/>
<path d="M47.2456 59.6898L50.8899 57.3613L51.8321 58.6988L47.9117 61.1518L47.2456 59.6898Z" fill="#2D86BF"/>
<path d="M174.667 54.3939C174.667 54.3939 160.588 67.677 154.09 69.8972C147.592 72.1173 130.886 80.3427 130.886 80.3427L128.325 78.3229C128.325 78.2092 126.457 79.655 126.435 80.6568C126.435 81.3824 128.271 87.4635 128.655 87.4581C130.442 87.4581 132.446 83.3643 132.446 83.3643C132.446 83.3643 153.835 77.7923 157.669 76.1136C161.503 74.4349 177.304 62.1103 177.304 62.1103L174.667 54.3939Z" fill="#B97964"/>
<path d="M177.786 51.2098C173.676 52.2279 168.396 59.4298 168.396 59.4298L172.187 66.1607L178.322 63.8972L177.786 51.2098Z" fill="#2D86BF"/>
<path opacity="0.6" d="M178.322 63.8973L172.907 65.9171L172.187 66.1879L168.396 59.4624C168.396 59.4624 173.676 52.255 177.786 51.2316L178.035 57.1069L178.322 63.8973Z" fill="white"/>
<path d="M168.396 58.1898L172.863 66.1607L171.331 67.2817L167.665 59.3486L168.396 58.1898Z" fill="#2D86BF"/>
<path opacity="0.2" d="M178.322 63.8973L172.907 65.9171C173.405 61.5417 176.99 58.049 178.035 57.1068L178.322 63.8973Z" fill="black"/>
<path d="M178.528 191.324L173.995 191.8L173.145 182.026L177.677 181.55L178.528 191.324Z" fill="#B97964"/>
<path d="M201.135 190.993H196.744L196.381 180.824H200.778L201.135 190.993Z" fill="#B97964"/>
<path d="M196.148 190.484H201.482C201.569 190.485 201.654 190.515 201.722 190.57C201.79 190.626 201.837 190.702 201.855 190.788L202.722 194.697C202.739 194.78 202.74 194.866 202.725 194.949C202.709 195.032 202.677 195.111 202.631 195.182C202.585 195.253 202.525 195.314 202.455 195.362C202.385 195.41 202.307 195.443 202.224 195.461C202.175 195.466 202.126 195.466 202.078 195.461C200.356 195.434 199.099 195.325 196.928 195.325C195.596 195.325 191.567 195.466 189.726 195.466C187.885 195.466 187.641 193.647 188.394 193.479C191.778 192.742 194.35 191.719 195.433 190.744C195.632 190.574 195.886 190.482 196.148 190.484Z" fill="#263238"/>
<path d="M194.686 191.253C194.387 191.279 194.089 191.2 193.841 191.031C193.763 190.966 193.702 190.883 193.664 190.788C193.627 190.693 193.613 190.591 193.625 190.49C193.622 190.429 193.638 190.369 193.67 190.317C193.702 190.264 193.748 190.223 193.803 190.197C194.291 189.948 195.71 190.82 195.861 190.918C195.879 190.927 195.894 190.942 195.904 190.961C195.914 190.979 195.918 191 195.915 191.02C195.912 191.042 195.903 191.061 195.888 191.077C195.874 191.092 195.855 191.103 195.834 191.107C195.458 191.199 195.073 191.248 194.686 191.253ZM194.031 190.344C193.984 190.339 193.937 190.349 193.895 190.371C193.895 190.371 193.836 190.409 193.831 190.495C193.821 190.564 193.829 190.635 193.854 190.7C193.879 190.765 193.919 190.823 193.971 190.869C194.465 191.089 195.023 191.116 195.536 190.945C195.077 190.651 194.566 190.447 194.031 190.344Z" fill="#2D86BF"/>
<path d="M195.807 191.096H195.758C195.304 190.853 194.426 189.889 194.518 189.423C194.534 189.345 194.575 189.275 194.637 189.225C194.698 189.174 194.775 189.147 194.854 189.147C194.933 189.136 195.013 189.142 195.089 189.166C195.164 189.189 195.234 189.229 195.293 189.282C195.802 189.694 195.91 190.961 195.916 191.021C195.919 191.034 195.919 191.049 195.914 191.063C195.909 191.076 195.9 191.088 195.888 191.096C195.876 191.105 195.862 191.109 195.848 191.109C195.833 191.109 195.819 191.105 195.807 191.096ZM194.925 189.315H194.876C194.74 189.315 194.73 189.396 194.724 189.423C194.67 189.705 195.228 190.441 195.677 190.782C195.643 190.279 195.454 189.799 195.136 189.407C195.078 189.353 195.004 189.32 194.925 189.315Z" fill="#2D86BF"/>
<path d="M173.519 190.344H178.852C178.94 190.344 179.025 190.374 179.093 190.43C179.161 190.485 179.208 190.561 179.226 190.647L180.092 194.557C180.126 194.725 180.092 194.9 179.998 195.044C179.904 195.188 179.757 195.289 179.589 195.325H179.448C177.721 195.298 176.464 195.19 174.298 195.19C172.966 195.19 168.938 195.331 167.096 195.331C165.255 195.331 165.012 193.511 165.764 193.344C169.149 192.607 171.694 191.584 172.804 190.636C172.998 190.454 173.253 190.35 173.519 190.344Z" fill="#263238"/>
<path d="M172.062 191.113C171.765 191.139 171.468 191.06 171.223 190.891C171.143 190.826 171.082 190.743 171.044 190.648C171.006 190.553 170.993 190.45 171.006 190.349C171.004 190.288 171.019 190.228 171.051 190.176C171.083 190.124 171.129 190.082 171.185 190.057C171.667 189.808 173.085 190.679 173.242 190.777C173.261 190.786 173.276 190.801 173.285 190.82C173.294 190.839 173.296 190.86 173.291 190.88C173.289 190.901 173.281 190.921 173.267 190.937C173.254 190.954 173.236 190.966 173.215 190.972C172.837 191.059 172.45 191.106 172.062 191.113ZM171.412 190.203C171.366 190.201 171.319 190.21 171.277 190.23C171.25 190.23 171.217 190.273 171.212 190.354C171.202 190.423 171.209 190.493 171.232 190.558C171.256 190.624 171.295 190.682 171.347 190.728C171.84 190.95 172.399 190.979 172.912 190.809C172.457 190.511 171.947 190.305 171.412 190.203Z" fill="#2D86BF"/>
<path d="M173.189 190.961H173.14C172.685 190.712 171.808 189.748 171.9 189.282C171.913 189.205 171.953 189.135 172.014 189.085C172.075 189.035 172.152 189.009 172.23 189.012C172.309 188.999 172.39 189.004 172.467 189.027C172.543 189.049 172.614 189.088 172.674 189.141C173.183 189.558 173.286 190.82 173.291 190.88C173.293 190.899 173.29 190.918 173.281 190.935C173.272 190.953 173.259 190.967 173.243 190.977C173.223 190.978 173.204 190.972 173.189 190.961ZM172.322 189.179H172.273C172.138 189.179 172.127 189.255 172.122 189.282C172.062 189.569 172.625 190.3 173.075 190.641C173.04 190.138 172.851 189.658 172.533 189.266C172.475 189.213 172.401 189.183 172.322 189.179Z" fill="#2D86BF"/>
<path opacity="0.2" d="M177.677 181.55L173.145 182.026L173.589 187.068L178.121 186.591L177.677 181.55Z" fill="black"/>
<path opacity="0.2" d="M200.778 180.829H196.381L196.57 186.071H200.967L200.778 180.829Z" fill="black"/>
<path d="M198.964 91.6115H175.679C173.465 103.709 166.528 146.525 171.504 184.674L179.394 183.699C179.394 183.699 178.663 133.053 185.627 114.328C186.428 124.351 187.381 135.013 188.204 140.682C190.235 154.648 194.573 185.162 194.573 185.162H202.603C202.603 185.162 200.978 155.953 200.204 142.231C199.354 127.334 198.997 94.6709 198.964 91.6115Z" fill="#2D86BF"/>
<path opacity="0.2" d="M185.611 114.295C184.462 117.577 183.591 120.95 183.006 124.378C182.356 115.459 184.961 105.999 184.961 105.999L185.611 114.295Z" fill="black"/>
<path d="M170.584 186.515L180.347 185.059L180.049 182.356L169.891 183.689L170.584 186.515Z" fill="#2D86BF"/>
<path opacity="0.6" d="M170.584 186.515L180.347 185.059L180.049 182.356L169.891 183.689L170.584 186.515Z" fill="white"/>
<path d="M193.592 185.227H203.063V182.394L193.235 182.21L193.592 185.227Z" fill="#2D86BF"/>
<path opacity="0.6" d="M193.592 185.227H203.063V182.394L193.235 182.21L193.592 185.227Z" fill="white"/>
<path d="M177.786 51.2099C177.786 51.2099 192.612 50.4843 203.654 53.273C203.654 53.273 199.89 87.0195 200.074 101.099L172.864 100.178C172.864 100.178 173.947 65.6193 177.786 51.2099Z" fill="#2D86BF"/>
<path opacity="0.6" d="M203.654 53.2784C203.654 53.2784 203.215 57.2097 202.641 62.9605C202.067 68.7113 201.358 76.3681 200.838 83.6513C200.35 90.3064 200.015 96.6745 200.074 101.099L172.864 100.178C172.864 100.178 173.947 65.6464 177.786 51.2316C177.786 51.2045 192.612 50.4843 203.654 53.2784Z" fill="white"/>
<path d="M127.632 72.2906L127.751 72.2852L127.74 72.269H127.756L127.751 72.2311L127.632 72.2906Z" fill="#263238"/>
<path d="M173.622 66.0363L173.199 66.0633H142.718L128.005 72.0199H127.756L130.448 100.178H159.429L175.685 93.6637L173.622 66.0363Z" fill="#263238"/>
<path opacity="0.2" d="M131.287 74.2291L132.467 75.323L134.038 74.971L133.361 76.4276L134.184 77.8139L132.587 77.6244L131.525 78.8319L131.211 77.2561L129.733 76.6172L131.135 75.832L131.287 74.2291Z" fill="white"/>
<path opacity="0.2" d="M147.792 76.5469L147.684 78.1551L148.94 79.1515L147.38 79.5468L146.823 81.0522L145.967 79.6876L144.359 79.6226L145.393 78.388L144.96 76.8393L146.449 77.4404L147.792 76.5469Z" fill="white"/>
<path opacity="0.2" d="M147.251 93.8749L147.142 95.4831L148.399 96.4795L146.839 96.8748L146.281 98.3802L145.426 97.0156L143.817 96.9506L144.852 95.716L144.418 94.1673L145.908 94.7684L147.251 93.8749Z" fill="white"/>
<path opacity="0.2" d="M140.211 89.5428L140.103 91.1511L141.359 92.1475L139.799 92.5428L139.242 94.0481L138.386 92.6836L136.778 92.6186L137.812 91.384L137.379 89.8353L138.868 90.4363L140.211 89.5428Z" fill="white"/>
<path opacity="0.2" d="M148.22 89.0122L148.155 89.949L148.897 90.5338L147.982 90.7667L147.651 91.6493L147.153 90.8533L146.211 90.81L146.817 90.0898L146.563 89.1801L147.435 89.532L148.22 89.0122Z" fill="white"/>
<path opacity="0.2" d="M134.682 95.5103L134.617 96.4471L135.359 97.0319L134.444 97.2647L134.114 98.1474L133.616 97.3514L132.673 97.308L133.28 96.5878L133.025 95.6781L133.897 96.0301L134.682 95.5103Z" fill="white"/>
<path opacity="0.2" d="M133.599 86.3047L133.534 87.2415L134.276 87.8263L133.361 88.0592L133.031 88.9418L132.533 88.1458L131.59 88.1025L132.197 87.3823L131.942 86.4726L132.814 86.8245L133.599 86.3047Z" fill="white"/>
<path opacity="0.2" d="M153.635 72.7671L153.57 73.7039L154.312 74.2887L153.397 74.5216L153.066 75.4042L152.568 74.6082L151.626 74.5649L152.232 73.8447L151.978 72.935L152.85 73.2869L153.635 72.7671Z" fill="white"/>
<path opacity="0.2" d="M136.604 79.1677L137.547 81.0792L139.653 81.3825L138.126 82.8662L138.489 84.9672L136.604 83.9763L134.72 84.9672L135.083 82.8662L133.556 81.3825L135.662 81.0792L136.604 79.1677Z" fill="white"/>
<path opacity="0.2" d="M150.505 83.0503L152.427 83.9546L154.268 82.8824L153.997 84.9943L155.584 86.413L153.494 86.8083L152.638 88.7578L151.615 86.8896L149.498 86.6784L150.954 85.1297L150.505 83.0503Z" fill="white"/>
<path opacity="0.2" d="M154.474 92.1638L155.416 94.0753L157.523 94.3786L155.996 95.8623L156.358 97.9633L154.474 96.9724L152.59 97.9633L152.952 95.8623L151.425 94.3786L153.532 94.0753L154.474 92.1638Z" fill="white"/>
<path opacity="0.2" d="M159.743 73.2653L160.415 74.2021L161.2 73.6497L160.94 75.193L161.443 76.471L160.615 76.4872L160.138 77.8247L159.884 76.2923L159.088 75.8428L159.765 74.8843L159.743 73.2653Z" fill="white"/>
<path opacity="0.2" d="M168.363 73.4764L168.401 75.0901L169.111 75.9294L168.331 76.5197L168.131 78.0955L167.611 76.8446L166.782 76.98L167.237 75.6208L166.923 74.1262L167.724 74.5378L168.363 73.4764Z" fill="white"/>
<path opacity="0.2" d="M169.111 90.8425L169.149 92.4562L169.858 93.2955L169.078 93.8858L168.884 95.4615L168.364 94.2107L167.53 94.3515L167.99 92.9869L167.676 91.4923L168.477 91.9039L169.111 90.8425Z" fill="white"/>
<path opacity="0.2" d="M165.239 87.4148L165.277 89.0285L165.987 89.8678L165.207 90.458L165.007 92.0338L164.487 90.7829L163.658 90.9183L164.113 89.5592L163.799 88.0646L164.6 88.4707L165.239 87.4148Z" fill="white"/>
<path opacity="0.2" d="M169.322 85.8607L169.344 86.8083L169.761 87.2957L169.306 87.6423L169.187 88.5682L168.883 87.8372L168.396 87.913L168.667 87.117L168.477 86.2452L168.948 86.4835L169.322 85.8607Z" fill="white"/>
<path opacity="0.2" d="M162.754 94.0698L162.775 95.0175L163.187 95.5102L162.732 95.8568L162.618 96.7773L162.31 96.0463L161.828 96.1275L162.093 95.3261L161.909 94.4543L162.38 94.6925L162.754 94.0698Z" fill="white"/>
<path opacity="0.2" d="M161.649 85.0214L161.671 85.969L162.088 86.4564L161.633 86.8029L161.514 87.7235L161.211 86.9924L160.723 87.0737L160.988 86.2777L160.804 85.4004L161.275 85.6441L161.649 85.0214Z" fill="white"/>
<path opacity="0.2" d="M171.141 68.955L171.163 69.9026L171.58 70.3899L171.125 70.7365L171.006 71.6625L170.703 70.9314L170.215 71.0073L170.481 70.2112L170.297 69.3394L170.768 69.5777L171.141 68.955Z" fill="white"/>
<path opacity="0.2" d="M162.77 77.5161L163.366 79.3031L164.465 79.341L163.772 81.0142L164.08 83.0611L163.057 82.3138L162.147 83.543L162.207 81.4041L161.335 80.1153L162.402 79.5413L162.77 77.5161Z" fill="white"/>
<path opacity="0.2" d="M170.145 79.6171L171.185 80.2778L172.067 78.9781L172.051 81.1171L172.955 82.33L171.905 82.9907L171.58 85.043L170.941 83.3156L169.842 83.3697L170.497 81.6369L170.145 79.6171Z" fill="white"/>
<path opacity="0.2" d="M172.723 88.2162L173.318 89.9977L174.423 90.0356L173.724 91.7143L174.033 93.7612L173.01 93.0139L172.1 94.2377L172.159 92.0988L171.288 90.8154L172.354 90.2414L172.723 88.2162Z" fill="white"/>
<path opacity="0.2" d="M156.721 72.1011L173.621 66.1608L175.685 93.8857L159.429 100.503L156.721 72.1011Z" fill="black"/>
<path opacity="0.2" d="M127.632 72.1282L142.718 66.0634H173.405L156.721 71.917L127.632 72.1282Z" fill="white"/>
<path d="M170.064 96.2413L168.126 67.6879H138.208L135.381 69.1553L162.711 69.9026L166.203 97.6546L170.064 96.2413Z" fill="#2D86BF"/>
<path d="M157.609 66.0634L143.579 71.8845L145.247 100.178H140.915L137.937 71.9712L153.64 66.0634H157.609Z" fill="#2D86BF"/>
<g opacity="0.2">
<path d="M170.064 96.2413L168.126 67.6879H138.208L135.381 69.1553L162.711 69.9026L166.203 97.6546L170.064 96.2413Z" fill="white"/>
<path d="M157.609 66.0634L143.579 71.8845L145.247 100.178H140.915L137.937 71.9712L153.64 66.0634H157.609Z" fill="white"/>
</g>
<path opacity="0.2" d="M168.125 67.9369L162.71 69.9675L166.203 97.7466L170.064 96.3658L168.125 67.9369Z" fill="black"/>
<path opacity="0.1" d="M137.937 72.0957L143.579 71.9495L145.247 100.178H140.915L137.937 72.0957Z" fill="black"/>
<path d="M148.648 68.278C148.648 68.278 140.525 62.1374 136.994 63.6752C134.206 64.8882 134.612 68.5217 141.668 69.4477C139.02 69.6859 135.884 70.1083 134.011 70.8231L139.334 71.4512C142.528 70.5805 145.788 69.9702 149.081 69.6264C149.217 70.227 149.217 70.8505 149.081 71.4512L152.725 71.1371C152.725 71.1371 151.642 70.1137 150.776 69.361C154.951 68.9441 163.891 67.6065 164.79 63.6752C165.965 58.531 153.082 61.9587 148.648 68.278ZM136.994 64.7095C137.85 63.3558 148.139 68.7275 148.139 68.7275C143.308 69.4043 136.133 66.0633 136.994 64.7095ZM149.574 68.5C149.574 68.5 160.593 60.6049 163.257 62.3648C165.922 64.1247 152.904 68.8195 149.579 68.5H149.574Z" fill="#2D86BF"/>
<path opacity="0.1" d="M148.648 68.278C148.648 68.278 140.525 62.1374 136.994 63.6752C134.206 64.8882 134.612 68.5217 141.668 69.4477C139.02 69.6859 135.884 70.1083 134.011 70.8231L139.334 71.4512C142.528 70.5805 145.788 69.9702 149.081 69.6264C149.217 70.227 149.217 70.8505 149.081 71.4512L152.725 71.1371C152.725 71.1371 151.642 70.1137 150.776 69.361C154.951 68.9441 163.891 67.6065 164.79 63.6752C165.965 58.531 153.082 61.9587 148.648 68.278ZM136.994 64.7095C137.85 63.3558 148.139 68.7275 148.139 68.7275C143.308 69.4043 136.133 66.0633 136.994 64.7095ZM149.574 68.5C149.574 68.5 160.593 60.6049 163.257 62.3648C165.922 64.1247 152.904 68.8195 149.579 68.5H149.574Z" fill="white"/>
<path opacity="0.2" d="M202.646 62.9605C202.072 68.7438 201.363 76.3681 200.843 83.6513C188.779 69.7076 197.41 59.4624 197.41 59.4624L202.646 62.9605Z" fill="black"/>
<path d="M183.899 51.1233C183.899 51.1233 183.786 54.2153 187.847 54.3723C191.908 54.5294 197.35 52.0547 197.35 52.0547C197.35 52.0547 189.607 50.3598 183.899 51.1233Z" fill="#2D86BF"/>
<path d="M195.227 51.7785C193.089 53.7224 187.847 53.0023 187.847 53.0023C187.847 53.0023 184.598 52.1088 185.264 51.0853C187.192 50.7658 188.123 49.8669 188.513 48.719C188.722 48.0042 188.788 47.2554 188.708 46.515C188.678 46.1043 188.623 45.6956 188.545 45.2912L195.043 40.4935C194.172 43.6559 193.132 49.4825 195.227 51.7785Z" fill="#B97964"/>
<path opacity="0.2" d="M193.522 43.5422C193.267 47.4302 190.072 48.5024 188.507 48.719C188.716 48.0043 188.783 47.2554 188.702 46.5151L193.522 43.5422Z" fill="black"/>
<path d="M182.345 31.2555C182.345 31.2555 181.425 37.3041 184.636 39.6326C187.847 41.9611 187.847 30.6924 187.847 30.6924L182.345 31.2555Z" fill="#263238"/>
<path d="M193.982 44.4411C193.307 45.4409 192.321 46.1909 191.177 46.5755C190.033 46.96 188.795 46.9578 187.652 46.5692C186.17 46.0998 184.923 45.0831 184.165 43.7263C184.055 43.5381 183.957 43.3427 183.873 43.1415C182.291 39.4484 181.788 32.9774 185.697 30.5569C186.558 30.0176 187.543 29.7075 188.557 29.656C189.572 29.6045 190.583 29.8133 191.494 30.2626C192.405 30.7119 193.186 31.3868 193.763 32.2231C194.34 33.0594 194.693 34.0293 194.789 35.0406C195.271 39.3618 195.759 41.8798 193.982 44.4411Z" fill="#B97964"/>
<path d="M188.491 37.3637C188.573 37.7048 188.416 38.0243 188.183 38.0676C187.95 38.111 187.723 37.851 187.641 37.5261C187.56 37.2012 187.717 36.8601 187.945 36.8222C188.172 36.7843 188.426 37.0334 188.491 37.3637Z" fill="#263238"/>
<path d="M184.544 38.0622C184.625 38.4033 184.463 38.7228 184.235 38.7607C184.008 38.7986 183.775 38.5441 183.694 38.2192C183.612 37.8943 183.775 37.5586 183.997 37.5207C184.219 37.4828 184.484 37.7318 184.544 38.0622Z" fill="#263238"/>
<path d="M185.827 38.0189C185.592 39.1499 185.202 40.2432 184.668 41.2679C184.938 41.3979 185.233 41.4676 185.532 41.4722C185.831 41.4769 186.128 41.4164 186.401 41.295L185.827 38.0189Z" fill="#A24E3F"/>
<path d="M189.493 35.9016C189.457 35.9122 189.418 35.9133 189.381 35.9048C189.344 35.8963 189.31 35.8784 189.282 35.8529C189.096 35.6701 188.87 35.5333 188.622 35.4534C188.373 35.3734 188.11 35.3527 187.852 35.3926C187.799 35.4042 187.744 35.3949 187.697 35.3667C187.651 35.3385 187.617 35.2935 187.603 35.241C187.597 35.2147 187.595 35.1874 187.6 35.1606C187.604 35.1338 187.613 35.1081 187.627 35.085C187.641 35.0618 187.66 35.0417 187.682 35.0257C187.704 35.0097 187.728 34.9983 187.755 34.9919C188.078 34.9304 188.41 34.9474 188.725 35.0417C189.04 35.1359 189.327 35.3046 189.563 35.5334C189.583 35.5525 189.598 35.5753 189.608 35.6004C189.619 35.6255 189.624 35.6524 189.624 35.6796C189.624 35.7068 189.619 35.7337 189.608 35.7588C189.598 35.7839 189.583 35.8067 189.563 35.8258C189.544 35.8549 189.52 35.8805 189.493 35.9016Z" fill="#263238"/>
<path d="M187.273 43.0277C187.786 43.0176 188.288 42.8844 188.739 42.6394C189.189 42.3944 189.574 42.0447 189.861 41.6198C189.876 41.5945 189.88 41.5647 189.873 41.5365C189.866 41.5083 189.848 41.4838 189.823 41.4682C189.8 41.4537 189.771 41.449 189.744 41.4551C189.717 41.4611 189.693 41.4775 189.677 41.5007C189.404 41.8889 189.044 42.208 188.625 42.4326C188.207 42.6573 187.742 42.7813 187.268 42.7949C187.24 42.7963 187.214 42.8083 187.194 42.8284C187.175 42.8486 187.165 42.8754 187.165 42.9032C187.164 42.9171 187.166 42.9311 187.171 42.9442C187.176 42.9573 187.183 42.9693 187.193 42.9795C187.202 42.9896 187.214 42.9977 187.227 43.0032C187.24 43.0087 187.254 43.0115 187.268 43.0115L187.273 43.0277Z" fill="#263238"/>
<path d="M182.611 36.99C182.572 37.0032 182.53 37.0032 182.492 36.99C182.465 36.9831 182.44 36.971 182.419 36.9544C182.397 36.9378 182.379 36.9171 182.365 36.8934C182.352 36.8697 182.343 36.8435 182.339 36.8164C182.336 36.7893 182.338 36.7618 182.345 36.7355C182.431 36.4149 182.592 36.1196 182.815 35.8745C183.038 35.6294 183.318 35.4418 183.629 35.3276C183.681 35.3125 183.738 35.3189 183.785 35.3453C183.833 35.3717 183.868 35.416 183.883 35.4684C183.899 35.5201 183.893 35.5757 183.868 35.6233C183.842 35.6709 183.799 35.7066 183.748 35.7229C183.505 35.8211 183.289 35.9745 183.116 36.171C182.943 36.3675 182.818 36.6015 182.752 36.8546C182.739 36.886 182.72 36.9144 182.696 36.9378C182.672 36.9611 182.643 36.979 182.611 36.99Z" fill="#263238"/>
<path d="M190.733 30.2646V32.1978C191.073 32.3123 191.358 32.5509 191.531 32.8659C191.703 33.181 191.751 33.5495 191.664 33.8981C191.242 35.5713 192.455 37.9431 193.803 38.7716C193.803 38.7716 193.76 38.0731 194.345 38.1651C194.93 38.2572 195.233 41.8907 194.301 43.7535C194.301 43.7535 195.834 41.9827 196.348 38.0731C196.819 34.4613 196.576 31.5209 195.693 30.2538L190.733 30.2646Z" fill="#263238"/>
<path d="M197.307 37.212C196.318 35.7481 194.999 34.5369 193.457 33.676C190.863 32.1869 186.878 31.1526 181.257 32.9125C181.257 32.9125 183.287 23.0842 192.13 26.4145L192.347 26.5011C200.919 29.8855 197.307 37.212 197.307 37.212Z" fill="#2D86BF"/>
<path opacity="0.2" d="M193.441 33.676C190.847 32.1869 186.862 31.1526 181.241 32.9125C181.241 32.9125 183.271 23.0842 192.114 26.4145L192.331 26.5011C192.855 26.777 193.308 27.172 193.652 27.6545C194.453 28.8891 193.879 31.9486 193.441 33.676Z" fill="white"/>
<path d="M182.226 33.4377C181.04 33.676 177.131 30.9414 178.685 29.7014C179.936 28.705 183.444 28.4126 186.201 29.0461C191.307 30.2266 193.533 33.6381 193.533 33.6381C193.533 33.6381 187.008 31.5425 182.226 33.4377Z" fill="#2D86BF"/>
<path opacity="0.2" d="M182.226 33.4377C181.04 33.676 177.131 30.9414 178.685 29.7014C179.936 28.705 183.444 28.4126 186.201 29.0461C191.307 30.2266 193.533 33.6381 193.533 33.6381C193.533 33.6381 187.008 31.5425 182.226 33.4377Z" fill="black"/>
<path d="M197.264 38.2733C197.11 38.7936 196.856 39.2786 196.515 39.7004C196.174 40.1222 195.753 40.4727 195.277 40.7317C193.999 41.4195 193.046 40.3527 193.111 38.9773C193.197 37.7589 193.955 35.8961 195.374 35.7878C196.793 35.6795 197.627 36.9791 197.264 38.2733Z" fill="#B97964"/>
<path d="M178.717 63.8973L177.266 74.0234L179.974 73.9693L179.622 78.5937L177.001 78.5233L176.188 80.3969L180.797 80.8518L183.829 64.3793L178.717 63.8973ZM179.362 71.8141L180.694 66.437L181.641 66.5128L180.715 71.787L179.362 71.8141Z" fill="#2D86BF"/>
<path d="M185.859 64.4388L184.403 74.4404L187.11 74.3862L186.764 79.1352H184.143L183.331 81.0467L187.939 81.5124L190.971 64.9858L185.859 64.4388ZM186.525 72.2311L187.858 66.9731H188.805L187.879 72.1823L186.525 72.2311Z" fill="#2D86BF"/>
<path d="M204.065 65.5218C204.065 65.5218 199.435 78.2959 198.065 80.9763C196.695 83.6567 169.728 86.2993 169.728 86.2993C169.728 86.2993 163.772 90.1548 162.689 89.9761C161.606 89.7974 159.126 84.7397 160.209 84.1982C161.292 83.6567 164.584 79.9312 166.366 79.9908C168.147 80.0503 169.707 82.0322 169.707 82.0322C169.707 82.0322 191.908 75.6696 193.105 75.1985C193.961 74.8573 197.47 62.4894 197.47 62.4894L204.065 65.5218Z" fill="#B97964"/>
<path d="M203.653 53.273C209.187 55.6014 203.653 71.5162 203.653 71.5162L195.228 67.9314C195.228 67.9314 197.989 50.9012 203.653 53.273Z" fill="#2D86BF"/>
<path opacity="0.6" d="M203.653 53.273C209.187 55.6014 203.653 71.5162 203.653 71.5162L195.228 67.9314C195.228 67.9314 197.989 50.9012 203.653 53.273Z" fill="white"/>
<path d="M194.794 66.6536L204.677 70.9314L203.659 73.0812L194.253 68.8196L194.794 66.6536Z" fill="#2D86BF"/>
<path d="M226.321 163.713C226.321 163.713 225.324 153.164 220.694 152.883C216.065 152.601 216.454 162.63 216.454 162.63" stroke="#263238" stroke-linecap="round" stroke-linejoin="round"/>
<path d="M206.615 195.483H231.524L228.459 168.034L229.542 161.368H208.781L210.189 167.963L206.615 195.483Z" fill="#2D86BF"/>
<path opacity="0.2" d="M222.14 161.368L223.044 168.678L221.117 195.342L225.389 190.977L231.524 195.483L228.459 168.034L229.543 161.368H222.14Z" fill="black"/>
<path opacity="0.2" d="M225.568 191.151V167.324L226.321 161.368H222.319L223.044 168.229L221.117 195.342L225.568 191.151Z" fill="black"/>
<path d="M212.485 163.713C212.485 163.713 214.965 152.455 219.66 152.536C224.355 152.617 219.07 163.713 219.07 163.713" stroke="#263238" stroke-linecap="round" stroke-linejoin="round"/>
<path d="M118.746 175.988L118.205 174.553C110.91 174.889 110.082 172.144 110.017 171.267C109.882 169.642 111.344 168.169 113.266 167.974C115.936 167.698 117.717 169.978 118.627 171.559C120.002 169.902 122.667 168.413 124.675 168.413C125.368 168.374 126.051 168.585 126.6 169.007C127.15 169.43 127.53 170.035 127.67 170.714C127.793 171.13 127.807 171.569 127.713 171.992C127.618 172.415 127.417 172.806 127.128 173.129C125.434 175.041 120.544 174.7 119.071 174.548L118.746 175.988ZM119.612 172.961C121.827 173.156 125.027 173.07 125.953 172.052C126.064 171.924 126.137 171.769 126.166 171.603C126.194 171.437 126.177 171.266 126.116 171.11C126.067 170.78 125.892 170.482 125.627 170.279C125.362 170.077 125.028 169.986 124.697 170.026C122.921 170.032 120.419 171.656 119.612 172.956V172.961ZM113.699 169.577H113.445C112.362 169.691 111.582 170.481 111.636 171.12C111.69 171.759 113.039 173.054 117.549 172.94C116.992 171.824 115.638 169.572 113.699 169.572V169.577Z" fill="#263238"/>
<path d="M134.417 173.73H102.761V195.477H134.417V173.73Z" fill="#2D86BF"/>
<path opacity="0.2" d="M134.417 181.246H102.761V195.477H134.417V181.246Z" fill="black"/>
<path opacity="0.2" d="M115.34 173.73H102.761V195.477H115.34V173.73Z" fill="black"/>
<g opacity="0.3">
<path d="M115.329 190.745V192.196L116.667 195.483H117.257L115.329 190.745Z" fill="white"/>
<path d="M115.329 181.425V182.866L120.457 195.483H121.047L115.329 181.425Z" fill="white"/>
<path d="M124.838 195.483L115.99 173.72H115.405L124.248 195.483H124.838Z" fill="white"/>
<path d="M128.628 195.483L119.78 173.72H119.195L128.038 195.483H128.628Z" fill="white"/>
<path d="M132.419 195.483L123.571 173.72H122.986L131.829 195.483H132.419Z" fill="white"/>
<path d="M126.771 173.72L134.417 193.046V191.595L127.356 173.72H126.771Z" fill="white"/>
<path d="M130.562 173.72L134.417 183.694V182.243L131.146 173.72H130.562Z" fill="white"/>
</g>
<g opacity="0.2">
<path d="M102.782 182.005V183.445L105.522 195.483H105.853L102.782 182.005Z" fill="white"/>
<path d="M103.02 173.72H102.782V174.12L107.64 195.483H107.97L103.02 173.72Z" fill="white"/>
<path d="M110.093 195.483L105.143 173.72H104.813L109.762 195.483H110.093Z" fill="white"/>
<path d="M112.215 195.483L107.26 173.72H106.936L111.879 195.483H112.215Z" fill="white"/>
<path d="M114.332 195.483L109.383 173.72H109.058L114.002 195.483H114.332Z" fill="white"/>
<path d="M115.329 191.037L111.5 173.72H111.175L115.329 192.488V191.037Z" fill="white"/>
<path d="M115.329 181.669L113.623 173.72H113.298L115.329 183.12V181.669Z" fill="white"/>
</g>
<path d="M126.43 173.73H123.858V195.477H126.43V173.73Z" fill="#263238"/>
<path d="M109.096 173.73H107.207V195.477H109.096V173.73Z" fill="#263238"/>
<path d="M139.112 181.366C138.116 181.468 134.78 181.718 133.659 180.423C133.466 180.239 133.33 180.004 133.267 179.745C133.203 179.485 133.215 179.214 133.302 178.961C133.551 177.97 134.287 177.613 135.327 177.613C136.89 177.685 138.36 178.374 139.415 179.53C140.032 178.447 141.235 176.779 143.043 176.963C144.359 177.093 145.35 178.046 145.258 179.156C145.204 179.752 144.651 181.593 139.718 181.366L139.35 182.324L139.112 181.366ZM135.321 178.696C134.78 178.696 134.487 178.739 134.357 179.237C134.271 179.589 134.357 179.638 134.471 179.752C135.083 180.44 137.26 180.629 138.76 180.499C138.342 179.98 137.822 179.553 137.233 179.242C136.643 178.932 135.996 178.746 135.332 178.696H135.321ZM140.157 180.261C143.206 180.342 144.115 179.514 144.153 179.032C144.191 178.55 143.677 178.062 142.929 177.992H142.762C141.457 177.981 140.541 179.503 140.168 180.261H140.157Z" fill="#2D86BF"/>
<path d="M128.753 195.483H150.169V180.77H128.753V195.483Z" fill="#2D86BF"/>
<path opacity="0.6" d="M128.753 195.483H150.169V180.77H128.753V195.483Z" fill="white"/>
<path opacity="0.1" d="M128.753 195.483H150.169V185.855H128.753V195.483Z" fill="black"/>
<path opacity="0.2" d="M141.662 195.483H150.169V180.77H141.662V195.483Z" fill="white"/>
<g opacity="0.4">
<path d="M129.273 182.216C129.416 182.216 129.533 182.041 129.533 181.826C129.533 181.61 129.416 181.436 129.273 181.436C129.129 181.436 129.013 181.61 129.013 181.826C129.013 182.041 129.129 182.216 129.273 182.216Z" fill="white"/>
<path d="M131.374 181.826C131.374 182.042 131.255 182.216 131.114 182.216C130.973 182.216 130.854 182.042 130.854 181.826C130.854 181.609 130.968 181.431 131.114 181.431C131.26 181.431 131.374 181.609 131.374 181.826Z" fill="white"/>
<path d="M132.955 182.216C133.098 182.216 133.215 182.041 133.215 181.826C133.215 181.61 133.098 181.436 132.955 181.436C132.811 181.436 132.695 181.61 132.695 181.826C132.695 182.041 132.811 182.216 132.955 182.216Z" fill="white"/>
<path d="M135.051 181.826C135.051 182.042 134.937 182.216 134.796 182.216C134.655 182.216 134.536 182.042 134.536 181.826C134.536 181.609 134.65 181.431 134.796 181.431C134.942 181.431 135.051 181.609 135.051 181.826Z" fill="white"/>
<path d="M136.632 182.216C136.775 182.216 136.891 182.041 136.891 181.826C136.891 181.61 136.775 181.436 136.632 181.436C136.488 181.436 136.372 181.61 136.372 181.826C136.372 182.041 136.488 182.216 136.632 182.216Z" fill="white"/>
<path d="M138.749 181.826C138.749 182.042 138.635 182.216 138.489 182.216C138.343 182.216 138.229 182.042 138.229 181.826C138.229 181.609 138.348 181.431 138.489 181.431C138.63 181.431 138.749 181.609 138.749 181.826Z" fill="white"/>
<path d="M140.314 182.216C140.457 182.216 140.574 182.041 140.574 181.826C140.574 181.61 140.457 181.436 140.314 181.436C140.17 181.436 140.054 181.61 140.054 181.826C140.054 182.041 140.17 182.216 140.314 182.216Z" fill="white"/>
<path d="M130.453 183.261C130.453 183.477 130.334 183.651 130.193 183.651C130.052 183.651 129.933 183.477 129.933 183.261C129.933 183.044 130.052 182.871 130.193 182.871C130.334 182.871 130.453 183.028 130.453 183.261Z" fill="white"/>
<path d="M132.289 183.261C132.289 183.477 132.175 183.651 132.034 183.651C131.894 183.651 131.774 183.477 131.774 183.261C131.774 183.044 131.888 182.871 132.034 182.871C132.181 182.871 132.289 183.028 132.289 183.261Z" fill="white"/>
<path d="M134.13 183.261C134.13 183.477 134.016 183.651 133.875 183.651C133.734 183.651 133.615 183.477 133.615 183.261C133.615 183.044 133.729 182.871 133.875 182.871C134.021 182.871 134.13 183.028 134.13 183.261Z" fill="white"/>
<path d="M135.971 183.261C135.971 183.477 135.857 183.651 135.711 183.651C135.565 183.651 135.457 183.477 135.457 183.261C135.457 183.044 135.57 182.871 135.711 182.871C135.852 182.871 135.971 183.028 135.971 183.261Z" fill="white"/>
<path d="M137.812 183.261C137.812 183.477 137.699 183.651 137.552 183.651C137.406 183.651 137.298 183.477 137.298 183.261C137.298 183.044 137.412 182.871 137.552 182.871C137.693 182.871 137.812 183.028 137.812 183.261Z" fill="white"/>
<path d="M139.653 183.261C139.653 183.477 139.534 183.651 139.393 183.651C139.252 183.651 139.133 183.477 139.133 183.261C139.133 183.044 139.252 182.871 139.393 182.871C139.534 182.871 139.653 183.028 139.653 183.261Z" fill="white"/>
<path d="M141.494 183.261C141.494 183.477 141.375 183.651 141.235 183.651C141.094 183.651 140.975 183.477 140.975 183.261C140.975 183.044 141.094 182.871 141.235 182.871C141.375 182.871 141.494 183.028 141.494 183.261Z" fill="white"/>
<path d="M129.273 185.367C129.416 185.367 129.533 185.193 129.533 184.977C129.533 184.762 129.416 184.588 129.273 184.588C129.129 184.588 129.013 184.762 129.013 184.977C129.013 185.193 129.129 185.367 129.273 185.367Z" fill="white"/>
<path d="M131.374 184.977C131.374 185.194 131.255 185.367 131.114 185.367C130.973 185.367 130.854 185.194 130.854 184.977C130.854 184.761 130.968 184.582 131.114 184.582C131.26 184.582 131.374 184.761 131.374 184.977Z" fill="white"/>
<path d="M132.955 185.367C133.098 185.367 133.215 185.193 133.215 184.977C133.215 184.762 133.098 184.588 132.955 184.588C132.811 184.588 132.695 184.762 132.695 184.977C132.695 185.193 132.811 185.367 132.955 185.367Z" fill="white"/>
<path d="M135.051 184.977C135.051 185.194 134.937 185.367 134.796 185.367C134.655 185.367 134.536 185.194 134.536 184.977C134.536 184.761 134.65 184.582 134.796 184.582C134.942 184.582 135.051 184.761 135.051 184.977Z" fill="white"/>
<path d="M136.632 185.367C136.775 185.367 136.891 185.193 136.891 184.977C136.891 184.762 136.775 184.588 136.632 184.588C136.488 184.588 136.372 184.762 136.372 184.977C136.372 185.193 136.488 185.367 136.632 185.367Z" fill="white"/>
<path d="M138.749 184.977C138.749 185.194 138.635 185.367 138.489 185.367C138.343 185.367 138.229 185.194 138.229 184.977C138.229 184.761 138.348 184.582 138.489 184.582C138.63 184.582 138.749 184.761 138.749 184.977Z" fill="white"/>
<path d="M140.314 185.367C140.457 185.367 140.574 185.193 140.574 184.977C140.574 184.762 140.457 184.588 140.314 184.588C140.17 184.588 140.054 184.762 140.054 184.977C140.054 185.193 140.17 185.367 140.314 185.367Z" fill="white"/>
<path d="M130.453 186.412C130.453 186.629 130.334 186.802 130.193 186.802C130.052 186.802 129.933 186.629 129.933 186.412C129.933 186.196 130.052 186.022 130.193 186.022C130.334 186.022 130.453 186.196 130.453 186.412Z" fill="white"/>
<path d="M132.289 186.412C132.289 186.629 132.175 186.802 132.034 186.802C131.894 186.802 131.774 186.629 131.774 186.412C131.774 186.196 131.888 186.022 132.034 186.022C132.181 186.022 132.289 186.196 132.289 186.412Z" fill="white"/>
<path d="M134.13 186.412C134.13 186.629 134.016 186.802 133.875 186.802C133.734 186.802 133.615 186.629 133.615 186.412C133.615 186.196 133.729 186.022 133.875 186.022C134.021 186.022 134.13 186.196 134.13 186.412Z" fill="white"/>
<path d="M135.971 186.412C135.971 186.629 135.857 186.802 135.711 186.802C135.565 186.802 135.457 186.629 135.457 186.412C135.457 186.196 135.57 186.022 135.711 186.022C135.852 186.022 135.971 186.196 135.971 186.412Z" fill="white"/>
<path d="M137.812 186.412C137.812 186.629 137.699 186.802 137.552 186.802C137.406 186.802 137.298 186.629 137.298 186.412C137.298 186.196 137.412 186.022 137.552 186.022C137.693 186.022 137.812 186.196 137.812 186.412Z" fill="white"/>
<path d="M139.653 186.412C139.653 186.629 139.534 186.802 139.393 186.802C139.252 186.802 139.133 186.629 139.133 186.412C139.133 186.196 139.252 186.022 139.393 186.022C139.534 186.022 139.653 186.196 139.653 186.412Z" fill="white"/>
<path d="M141.494 186.412C141.494 186.629 141.375 186.802 141.235 186.802C141.094 186.802 140.975 186.629 140.975 186.412C140.975 186.196 141.094 186.022 141.235 186.022C141.375 186.022 141.494 186.196 141.494 186.412Z" fill="white"/>
<path d="M129.273 188.519C129.416 188.519 129.533 188.344 129.533 188.129C129.533 187.914 129.416 187.739 129.273 187.739C129.129 187.739 129.013 187.914 129.013 188.129C129.013 188.344 129.129 188.519 129.273 188.519Z" fill="white"/>
<path d="M131.374 188.129C131.374 188.346 131.255 188.519 131.114 188.519C130.973 188.519 130.854 188.346 130.854 188.129C130.854 187.912 130.968 187.734 131.114 187.734C131.26 187.734 131.374 187.902 131.374 188.129Z" fill="white"/>
<path d="M132.955 188.519C133.098 188.519 133.215 188.344 133.215 188.129C133.215 187.914 133.098 187.739 132.955 187.739C132.811 187.739 132.695 187.914 132.695 188.129C132.695 188.344 132.811 188.519 132.955 188.519Z" fill="white"/>
<path d="M135.051 188.129C135.051 188.346 134.937 188.519 134.796 188.519C134.655 188.519 134.536 188.346 134.536 188.129C134.536 187.912 134.65 187.734 134.796 187.734C134.942 187.734 135.051 187.902 135.051 188.129Z" fill="white"/>
<path d="M136.632 188.519C136.775 188.519 136.891 188.344 136.891 188.129C136.891 187.914 136.775 187.739 136.632 187.739C136.488 187.739 136.372 187.914 136.372 188.129C136.372 188.344 136.488 188.519 136.632 188.519Z" fill="white"/>
<path d="M138.749 188.129C138.749 188.346 138.635 188.519 138.489 188.519C138.343 188.519 138.229 188.346 138.229 188.129C138.229 187.912 138.348 187.734 138.489 187.734C138.63 187.734 138.749 187.902 138.749 188.129Z" fill="white"/>
<path d="M140.314 188.519C140.457 188.519 140.574 188.344 140.574 188.129C140.574 187.914 140.457 187.739 140.314 187.739C140.17 187.739 140.054 187.914 140.054 188.129C140.054 188.344 140.17 188.519 140.314 188.519Z" fill="white"/>
<path d="M130.453 189.564C130.453 189.781 130.334 189.954 130.193 189.954C130.052 189.954 129.933 189.781 129.933 189.564C129.933 189.347 130.052 189.174 130.193 189.174C130.334 189.174 130.453 189.347 130.453 189.564Z" fill="white"/>
<path d="M132.289 189.564C132.289 189.781 132.175 189.954 132.034 189.954C131.894 189.954 131.774 189.781 131.774 189.564C131.774 189.347 131.888 189.174 132.034 189.174C132.181 189.174 132.289 189.347 132.289 189.564Z" fill="white"/>
<path d="M134.13 189.564C134.13 189.781 134.016 189.954 133.875 189.954C133.734 189.954 133.615 189.781 133.615 189.564C133.615 189.347 133.729 189.174 133.875 189.174C134.021 189.174 134.13 189.347 134.13 189.564Z" fill="white"/>
<path d="M135.971 189.564C135.971 189.781 135.857 189.954 135.711 189.954C135.565 189.954 135.457 189.781 135.457 189.564C135.457 189.347 135.57 189.174 135.711 189.174C135.852 189.174 135.971 189.347 135.971 189.564Z" fill="white"/>
<path d="M137.812 189.564C137.812 189.781 137.699 189.954 137.552 189.954C137.406 189.954 137.298 189.781 137.298 189.564C137.298 189.347 137.412 189.174 137.552 189.174C137.693 189.174 137.812 189.347 137.812 189.564Z" fill="white"/>
<path d="M139.653 189.564C139.653 189.781 139.534 189.954 139.393 189.954C139.252 189.954 139.133 189.781 139.133 189.564C139.133 189.347 139.252 189.174 139.393 189.174C139.534 189.174 139.653 189.347 139.653 189.564Z" fill="white"/>
<path d="M141.494 189.564C141.494 189.781 141.375 189.954 141.235 189.954C141.094 189.954 140.975 189.781 140.975 189.564C140.975 189.347 141.094 189.174 141.235 189.174C141.375 189.174 141.494 189.347 141.494 189.564Z" fill="white"/>
<path d="M129.273 191.67C129.416 191.67 129.533 191.496 129.533 191.281C129.533 191.065 129.416 190.891 129.273 190.891C129.129 190.891 129.013 191.065 129.013 191.281C129.013 191.496 129.129 191.67 129.273 191.67Z" fill="white"/>
<path d="M131.374 191.281C131.374 191.497 131.255 191.67 131.114 191.67C130.973 191.67 130.854 191.497 130.854 191.281C130.854 191.064 130.968 190.885 131.114 190.885C131.26 190.885 131.374 191.064 131.374 191.281Z" fill="white"/>
<path d="M132.955 191.67C133.098 191.67 133.215 191.496 133.215 191.281C133.215 191.065 133.098 190.891 132.955 190.891C132.811 190.891 132.695 191.065 132.695 191.281C132.695 191.496 132.811 191.67 132.955 191.67Z" fill="white"/>
<path d="M135.051 191.281C135.051 191.497 134.937 191.67 134.796 191.67C134.655 191.67 134.536 191.497 134.536 191.281C134.536 191.064 134.65 190.885 134.796 190.885C134.942 190.885 135.051 191.064 135.051 191.281Z" fill="white"/>
<path d="M136.632 191.67C136.775 191.67 136.891 191.496 136.891 191.281C136.891 191.065 136.775 190.891 136.632 190.891C136.488 190.891 136.372 191.065 136.372 191.281C136.372 191.496 136.488 191.67 136.632 191.67Z" fill="white"/>
<path d="M138.749 191.281C138.749 191.497 138.635 191.67 138.489 191.67C138.343 191.67 138.229 191.497 138.229 191.281C138.229 191.064 138.348 190.885 138.489 190.885C138.63 190.885 138.749 191.064 138.749 191.281Z" fill="white"/>
<path d="M140.314 191.67C140.457 191.67 140.574 191.496 140.574 191.281C140.574 191.065 140.457 190.891 140.314 190.891C140.17 190.891 140.054 191.065 140.054 191.281C140.054 191.496 140.17 191.67 140.314 191.67Z" fill="white"/>
<path d="M130.453 192.715C130.453 192.932 130.334 193.105 130.193 193.105C130.052 193.105 129.933 192.932 129.933 192.715C129.933 192.499 130.052 192.326 130.193 192.326C130.334 192.326 130.453 192.499 130.453 192.715Z" fill="white"/>
<path d="M132.289 192.715C132.289 192.932 132.175 193.105 132.034 193.105C131.894 193.105 131.774 192.932 131.774 192.715C131.774 192.499 131.888 192.326 132.034 192.326C132.181 192.326 132.289 192.499 132.289 192.715Z" fill="white"/>
<path d="M134.13 192.715C134.13 192.932 134.016 193.105 133.875 193.105C133.734 193.105 133.615 192.932 133.615 192.715C133.615 192.499 133.729 192.326 133.875 192.326C134.021 192.326 134.13 192.499 134.13 192.715Z" fill="white"/>
<path d="M135.971 192.715C135.971 192.932 135.857 193.105 135.711 193.105C135.565 193.105 135.457 192.932 135.457 192.715C135.457 192.499 135.57 192.326 135.711 192.326C135.852 192.326 135.971 192.499 135.971 192.715Z" fill="white"/>
<path d="M137.812 192.715C137.812 192.932 137.699 193.105 137.552 193.105C137.406 193.105 137.298 192.932 137.298 192.715C137.298 192.499 137.412 192.326 137.552 192.326C137.693 192.326 137.812 192.499 137.812 192.715Z" fill="white"/>
<path d="M139.653 192.715C139.653 192.932 139.534 193.105 139.393 193.105C139.252 193.105 139.133 192.932 139.133 192.715C139.133 192.499 139.252 192.326 139.393 192.326C139.534 192.326 139.653 192.499 139.653 192.715Z" fill="white"/>
<path d="M141.494 192.715C141.494 192.932 141.375 193.105 141.235 193.105C141.094 193.105 140.975 192.932 140.975 192.715C140.975 192.499 141.094 192.326 141.235 192.326C141.375 192.326 141.494 192.499 141.494 192.715Z" fill="white"/>
<path d="M129.273 194.822C129.416 194.822 129.533 194.647 129.533 194.432C129.533 194.217 129.416 194.042 129.273 194.042C129.129 194.042 129.013 194.217 129.013 194.432C129.013 194.647 129.129 194.822 129.273 194.822Z" fill="white"/>
<path d="M131.374 194.432C131.374 194.649 131.255 194.822 131.114 194.822C130.973 194.822 130.854 194.649 130.854 194.432C130.854 194.215 130.968 194.037 131.114 194.037C131.26 194.037 131.374 194.215 131.374 194.432Z" fill="white"/>
<path d="M132.955 194.822C133.098 194.822 133.215 194.647 133.215 194.432C133.215 194.217 133.098 194.042 132.955 194.042C132.811 194.042 132.695 194.217 132.695 194.432C132.695 194.647 132.811 194.822 132.955 194.822Z" fill="white"/>
<path d="M135.051 194.432C135.051 194.649 134.937 194.822 134.796 194.822C134.655 194.822 134.536 194.649 134.536 194.432C134.536 194.215 134.65 194.037 134.796 194.037C134.942 194.037 135.051 194.215 135.051 194.432Z" fill="white"/>
<path d="M136.632 194.822C136.775 194.822 136.891 194.647 136.891 194.432C136.891 194.217 136.775 194.042 136.632 194.042C136.488 194.042 136.372 194.217 136.372 194.432C136.372 194.647 136.488 194.822 136.632 194.822Z" fill="white"/>
<path d="M138.749 194.432C138.749 194.649 138.635 194.822 138.489 194.822C138.343 194.822 138.229 194.649 138.229 194.432C138.229 194.215 138.348 194.037 138.489 194.037C138.63 194.037 138.749 194.215 138.749 194.432Z" fill="white"/>
<path d="M140.314 194.822C140.457 194.822 140.574 194.647 140.574 194.432C140.574 194.217 140.457 194.042 140.314 194.042C140.17 194.042 140.054 194.217 140.054 194.432C140.054 194.647 140.17 194.822 140.314 194.822Z" fill="white"/>
</g>
<g opacity="0.6">
<path d="M142.209 182.216C142.314 182.216 142.399 182.041 142.399 181.826C142.399 181.61 142.314 181.436 142.209 181.436C142.104 181.436 142.02 181.61 142.02 181.826C142.02 182.041 142.104 182.216 142.209 182.216Z" fill="white"/>
<path d="M143.568 182.216C143.673 182.216 143.758 182.041 143.758 181.826C143.758 181.61 143.673 181.436 143.568 181.436C143.464 181.436 143.379 181.61 143.379 181.826C143.379 182.041 143.464 182.216 143.568 182.216Z" fill="white"/>
<path d="M144.922 182.216C145.027 182.216 145.111 182.041 145.111 181.826C145.111 181.61 145.027 181.436 144.922 181.436C144.817 181.436 144.732 181.61 144.732 181.826C144.732 182.041 144.817 182.216 144.922 182.216Z" fill="white"/>
<path d="M146.281 182.216C146.386 182.216 146.471 182.041 146.471 181.826C146.471 181.61 146.386 181.436 146.281 181.436C146.177 181.436 146.092 181.61 146.092 181.826C146.092 182.041 146.177 182.216 146.281 182.216Z" fill="white"/>
<path d="M147.635 182.216C147.74 182.216 147.824 182.041 147.824 181.826C147.824 181.61 147.74 181.436 147.635 181.436C147.53 181.436 147.445 181.61 147.445 181.826C147.445 182.041 147.53 182.216 147.635 182.216Z" fill="white"/>
<path d="M149.184 181.826C149.184 182.042 149.097 182.216 148.994 182.216C148.891 182.216 148.805 182.042 148.805 181.826C148.805 181.609 148.891 181.431 148.994 181.431C149.097 181.431 149.184 181.609 149.184 181.826Z" fill="white"/>
<path d="M142.886 183.651C142.99 183.651 143.075 183.476 143.075 183.261C143.075 183.046 142.99 182.871 142.886 182.871C142.781 182.871 142.696 183.046 142.696 183.261C142.696 183.476 142.781 183.651 142.886 183.651Z" fill="white"/>
<path d="M144.245 183.651C144.35 183.651 144.435 183.476 144.435 183.261C144.435 183.046 144.35 182.871 144.245 182.871C144.141 182.871 144.056 183.046 144.056 183.261C144.056 183.476 144.141 183.651 144.245 183.651Z" fill="white"/>
<path d="M145.599 183.651C145.703 183.651 145.788 183.476 145.788 183.261C145.788 183.046 145.703 182.871 145.599 182.871C145.494 182.871 145.409 183.046 145.409 183.261C145.409 183.476 145.494 183.651 145.599 183.651Z" fill="white"/>
<path d="M146.958 183.651C147.063 183.651 147.148 183.476 147.148 183.261C147.148 183.046 147.063 182.871 146.958 182.871C146.853 182.871 146.769 183.046 146.769 183.261C146.769 183.476 146.853 183.651 146.958 183.651Z" fill="white"/>
<path d="M148.317 183.651C148.422 183.651 148.507 183.476 148.507 183.261C148.507 183.046 148.422 182.871 148.317 182.871C148.213 182.871 148.128 183.046 148.128 183.261C148.128 183.476 148.213 183.651 148.317 183.651Z" fill="white"/>
<path d="M149.671 183.651C149.776 183.651 149.86 183.476 149.86 183.261C149.86 183.046 149.776 182.871 149.671 182.871C149.566 182.871 149.481 183.046 149.481 183.261C149.481 183.476 149.566 183.651 149.671 183.651Z" fill="white"/>
<path d="M142.209 185.367C142.314 185.367 142.399 185.193 142.399 184.977C142.399 184.762 142.314 184.588 142.209 184.588C142.104 184.588 142.02 184.762 142.02 184.977C142.02 185.193 142.104 185.367 142.209 185.367Z" fill="white"/>
<path d="M143.568 185.367C143.673 185.367 143.758 185.193 143.758 184.977C143.758 184.762 143.673 184.588 143.568 184.588C143.464 184.588 143.379 184.762 143.379 184.977C143.379 185.193 143.464 185.367 143.568 185.367Z" fill="white"/>
<path d="M144.922 185.367C145.027 185.367 145.111 185.193 145.111 184.977C145.111 184.762 145.027 184.588 144.922 184.588C144.817 184.588 144.732 184.762 144.732 184.977C144.732 185.193 144.817 185.367 144.922 185.367Z" fill="white"/>
<path d="M146.281 185.367C146.386 185.367 146.471 185.193 146.471 184.977C146.471 184.762 146.386 184.588 146.281 184.588C146.177 184.588 146.092 184.762 146.092 184.977C146.092 185.193 146.177 185.367 146.281 185.367Z" fill="white"/>
<path d="M147.635 185.367C147.74 185.367 147.824 185.193 147.824 184.977C147.824 184.762 147.74 184.588 147.635 184.588C147.53 184.588 147.445 184.762 147.445 184.977C147.445 185.193 147.53 185.367 147.635 185.367Z" fill="white"/>
<path d="M149.184 184.977C149.184 185.194 149.097 185.367 148.994 185.367C148.891 185.367 148.805 185.194 148.805 184.977C148.805 184.761 148.891 184.582 148.994 184.582C149.097 184.582 149.184 184.761 149.184 184.977Z" fill="white"/>
<path d="M142.886 186.802C142.99 186.802 143.075 186.628 143.075 186.412C143.075 186.197 142.99 186.022 142.886 186.022C142.781 186.022 142.696 186.197 142.696 186.412C142.696 186.628 142.781 186.802 142.886 186.802Z" fill="white"/>
<path d="M144.245 186.802C144.35 186.802 144.435 186.628 144.435 186.412C144.435 186.197 144.35 186.022 144.245 186.022C144.141 186.022 144.056 186.197 144.056 186.412C144.056 186.628 144.141 186.802 144.245 186.802Z" fill="white"/>
<path d="M145.599 186.802C145.703 186.802 145.788 186.628 145.788 186.412C145.788 186.197 145.703 186.022 145.599 186.022C145.494 186.022 145.409 186.197 145.409 186.412C145.409 186.628 145.494 186.802 145.599 186.802Z" fill="white"/>
<path d="M146.958 186.802C147.063 186.802 147.148 186.628 147.148 186.412C147.148 186.197 147.063 186.022 146.958 186.022C146.853 186.022 146.769 186.197 146.769 186.412C146.769 186.628 146.853 186.802 146.958 186.802Z" fill="white"/>
<path d="M148.317 186.802C148.422 186.802 148.507 186.628 148.507 186.412C148.507 186.197 148.422 186.022 148.317 186.022C148.213 186.022 148.128 186.197 148.128 186.412C148.128 186.628 148.213 186.802 148.317 186.802Z" fill="white"/>
<path d="M149.671 186.802C149.776 186.802 149.86 186.628 149.86 186.412C149.86 186.197 149.776 186.022 149.671 186.022C149.566 186.022 149.481 186.197 149.481 186.412C149.481 186.628 149.566 186.802 149.671 186.802Z" fill="white"/>
<path d="M142.209 188.519C142.314 188.519 142.399 188.344 142.399 188.129C142.399 187.914 142.314 187.739 142.209 187.739C142.104 187.739 142.02 187.914 142.02 188.129C142.02 188.344 142.104 188.519 142.209 188.519Z" fill="white"/>
<path d="M143.568 188.519C143.673 188.519 143.758 188.344 143.758 188.129C143.758 187.914 143.673 187.739 143.568 187.739C143.464 187.739 143.379 187.914 143.379 188.129C143.379 188.344 143.464 188.519 143.568 188.519Z" fill="white"/>
<path d="M144.922 188.519C145.027 188.519 145.111 188.344 145.111 188.129C145.111 187.914 145.027 187.739 144.922 187.739C144.817 187.739 144.732 187.914 144.732 188.129C144.732 188.344 144.817 188.519 144.922 188.519Z" fill="white"/>
<path d="M146.281 188.519C146.386 188.519 146.471 188.344 146.471 188.129C146.471 187.914 146.386 187.739 146.281 187.739C146.177 187.739 146.092 187.914 146.092 188.129C146.092 188.344 146.177 188.519 146.281 188.519Z" fill="white"/>
<path d="M147.635 188.519C147.74 188.519 147.824 188.344 147.824 188.129C147.824 187.914 147.74 187.739 147.635 187.739C147.53 187.739 147.445 187.914 147.445 188.129C147.445 188.344 147.53 188.519 147.635 188.519Z" fill="white"/>
<path d="M149.184 188.129C149.184 188.346 149.097 188.519 148.994 188.519C148.891 188.519 148.805 188.346 148.805 188.129C148.805 187.912 148.891 187.734 148.994 187.734C149.097 187.734 149.184 187.902 149.184 188.129Z" fill="white"/>
<path d="M142.886 189.954C142.99 189.954 143.075 189.779 143.075 189.564C143.075 189.349 142.99 189.174 142.886 189.174C142.781 189.174 142.696 189.349 142.696 189.564C142.696 189.779 142.781 189.954 142.886 189.954Z" fill="white"/>
<path d="M144.245 189.954C144.35 189.954 144.435 189.779 144.435 189.564C144.435 189.349 144.35 189.174 144.245 189.174C144.141 189.174 144.056 189.349 144.056 189.564C144.056 189.779 144.141 189.954 144.245 189.954Z" fill="white"/>
<path d="M145.599 189.954C145.703 189.954 145.788 189.779 145.788 189.564C145.788 189.349 145.703 189.174 145.599 189.174C145.494 189.174 145.409 189.349 145.409 189.564C145.409 189.779 145.494 189.954 145.599 189.954Z" fill="white"/>
<path d="M146.958 189.954C147.063 189.954 147.148 189.779 147.148 189.564C147.148 189.349 147.063 189.174 146.958 189.174C146.853 189.174 146.769 189.349 146.769 189.564C146.769 189.779 146.853 189.954 146.958 189.954Z" fill="white"/>
<path d="M148.317 189.954C148.422 189.954 148.507 189.779 148.507 189.564C148.507 189.349 148.422 189.174 148.317 189.174C148.213 189.174 148.128 189.349 148.128 189.564C148.128 189.779 148.213 189.954 148.317 189.954Z" fill="white"/>
<path d="M149.671 189.954C149.776 189.954 149.86 189.779 149.86 189.564C149.86 189.349 149.776 189.174 149.671 189.174C149.566 189.174 149.481 189.349 149.481 189.564C149.481 189.779 149.566 189.954 149.671 189.954Z" fill="white"/>
<path d="M142.209 191.67C142.314 191.67 142.399 191.496 142.399 191.281C142.399 191.065 142.314 190.891 142.209 190.891C142.104 190.891 142.02 191.065 142.02 191.281C142.02 191.496 142.104 191.67 142.209 191.67Z" fill="white"/>
<path d="M143.568 191.67C143.673 191.67 143.758 191.496 143.758 191.281C143.758 191.065 143.673 190.891 143.568 190.891C143.464 190.891 143.379 191.065 143.379 191.281C143.379 191.496 143.464 191.67 143.568 191.67Z" fill="white"/>
<path d="M144.922 191.67C145.027 191.67 145.111 191.496 145.111 191.281C145.111 191.065 145.027 190.891 144.922 190.891C144.817 190.891 144.732 191.065 144.732 191.281C144.732 191.496 144.817 191.67 144.922 191.67Z" fill="white"/>
<path d="M146.281 191.67C146.386 191.67 146.471 191.496 146.471 191.281C146.471 191.065 146.386 190.891 146.281 190.891C146.177 190.891 146.092 191.065 146.092 191.281C146.092 191.496 146.177 191.67 146.281 191.67Z" fill="white"/>
<path d="M147.635 191.67C147.74 191.67 147.824 191.496 147.824 191.281C147.824 191.065 147.74 190.891 147.635 190.891C147.53 190.891 147.445 191.065 147.445 191.281C147.445 191.496 147.53 191.67 147.635 191.67Z" fill="white"/>
<path d="M149.184 191.281C149.184 191.497 149.097 191.67 148.994 191.67C148.891 191.67 148.805 191.497 148.805 191.281C148.805 191.064 148.891 190.885 148.994 190.885C149.097 190.885 149.184 191.064 149.184 191.281Z" fill="white"/>
<path d="M142.886 193.105C142.99 193.105 143.075 192.931 143.075 192.715C143.075 192.5 142.99 192.326 142.886 192.326C142.781 192.326 142.696 192.5 142.696 192.715C142.696 192.931 142.781 193.105 142.886 193.105Z" fill="white"/>
<path d="M144.245 193.105C144.35 193.105 144.435 192.931 144.435 192.715C144.435 192.5 144.35 192.326 144.245 192.326C144.141 192.326 144.056 192.5 144.056 192.715C144.056 192.931 144.141 193.105 144.245 193.105Z" fill="white"/>
<path d="M145.599 193.105C145.703 193.105 145.788 192.931 145.788 192.715C145.788 192.5 145.703 192.326 145.599 192.326C145.494 192.326 145.409 192.5 145.409 192.715C145.409 192.931 145.494 193.105 145.599 193.105Z" fill="white"/>
<path d="M146.958 193.105C147.063 193.105 147.148 192.931 147.148 192.715C147.148 192.5 147.063 192.326 146.958 192.326C146.853 192.326 146.769 192.5 146.769 192.715C146.769 192.931 146.853 193.105 146.958 193.105Z" fill="white"/>
<path d="M148.317 193.105C148.422 193.105 148.507 192.931 148.507 192.715C148.507 192.5 148.422 192.326 148.317 192.326C148.213 192.326 148.128 192.5 148.128 192.715C148.128 192.931 148.213 193.105 148.317 193.105Z" fill="white"/>
<path d="M149.671 193.105C149.776 193.105 149.86 192.931 149.86 192.715C149.86 192.5 149.776 192.326 149.671 192.326C149.566 192.326 149.481 192.5 149.481 192.715C149.481 192.931 149.566 193.105 149.671 193.105Z" fill="white"/>
<path d="M142.209 194.822C142.314 194.822 142.399 194.647 142.399 194.432C142.399 194.217 142.314 194.042 142.209 194.042C142.104 194.042 142.02 194.217 142.02 194.432C142.02 194.647 142.104 194.822 142.209 194.822Z" fill="white"/>
<path d="M143.568 194.822C143.673 194.822 143.758 194.647 143.758 194.432C143.758 194.217 143.673 194.042 143.568 194.042C143.464 194.042 143.379 194.217 143.379 194.432C143.379 194.647 143.464 194.822 143.568 194.822Z" fill="white"/>
<path d="M144.922 194.822C145.027 194.822 145.111 194.647 145.111 194.432C145.111 194.217 145.027 194.042 144.922 194.042C144.817 194.042 144.732 194.217 144.732 194.432C144.732 194.647 144.817 194.822 144.922 194.822Z" fill="white"/>
<path d="M146.281 194.822C146.386 194.822 146.471 194.647 146.471 194.432C146.471 194.217 146.386 194.042 146.281 194.042C146.177 194.042 146.092 194.217 146.092 194.432C146.092 194.647 146.177 194.822 146.281 194.822Z" fill="white"/>
<path d="M147.635 194.822C147.74 194.822 147.824 194.647 147.824 194.432C147.824 194.217 147.74 194.042 147.635 194.042C147.53 194.042 147.445 194.217 147.445 194.432C147.445 194.647 147.53 194.822 147.635 194.822Z" fill="white"/>
<path d="M149.184 194.432C149.184 194.649 149.097 194.822 148.994 194.822C148.891 194.822 148.805 194.649 148.805 194.432C148.805 194.215 148.891 194.037 148.994 194.037C149.097 194.037 149.184 194.215 149.184 194.432Z" fill="white"/>
</g>
<path d="M134.163 195.483H135.901V180.77H134.163V195.483Z" fill="#2D86BF"/>
<path d="M145.886 195.483H147.164V180.77H145.886V195.483Z" fill="#2D86BF"/>
</svg>
